solid OpenSCAD_Model
  facet normal 0 0 -1
    outer loop
      vertex 44.3073 -6.59958 0.4
      vertex 46.7956 -7.95831 0.4
      vertex 44.6284 -9.41409 0.4
    endloop
  endfacet
  facet normal 0 -0 -1
    outer loop
      vertex 33.0699 -1.35874 0.4
      vertex 35.9595 -3.29979 0.4
      vertex 32.7489 -6.30842 0.4
    endloop
  endfacet
  facet normal -0 0 -1
    outer loop
      vertex 44.3073 -6.59958 0.4
      vertex 40.7756 -8.73473 0.4
      vertex 41.5782 -6.11432 0.4
    endloop
  endfacet
  facet normal 0 0 -1
    outer loop
      vertex 32.7489 -6.30842 0.4
      vertex 35.9595 -3.29979 0.4
      vertex 36.7622 -7.7642 0.4
    endloop
  endfacet
  facet normal 0 0 -1
    outer loop
      vertex 24.7222 -4.27031 0.4
      vertex 29.5382 -0.485274 0.4
      vertex 28.8961 -5.43494 0.4
    endloop
  endfacet
  facet normal 0 -0 -1
    outer loop
      vertex 20.3878 3.97914 0.4
      vertex 20.6286 -3.59095 0.4
      vertex 16.535 -2.42632 0.4
    endloop
  endfacet
  facet normal 0 0 -1
    outer loop
      vertex -29.0566 -2.81453 0.4
      vertex -30.1803 4.4644 0.4
      vertex -26.0867 4.17324 0.4
    endloop
  endfacet
  facet normal 0 0 -1
    outer loop
      vertex 20.6286 -3.59095 0.4
      vertex 20.3878 3.97914 0.4
      vertex 23.2774 2.2322 0.4
    endloop
  endfacet
  facet normal 0 0 -1
    outer loop
      vertex -16.9363 -0.873478 0.4
      vertex -15.0902 6.98776 0.4
      vertex -12.6822 -0.679376 0.4
    endloop
  endfacet
  facet normal 0 0 -1
    outer loop
      vertex 12.2808 -1.55284 0.4
      vertex 13.9664 6.21135 0.4
      vertex 17.0968 4.75556 0.4
    endloop
  endfacet
  facet normal 0 0 -1
    outer loop
      vertex 6.74241 8.1524 0.4
      vertex 10.0334 6.59955 0.4
      vertex 8.10694 -0.485274 0.4
    endloop
  endfacet
  facet normal 0 0 -1
    outer loop
      vertex -12.6822 -0.679376 0.4
      vertex -15.0902 6.98776 0.4
      vertex -11.1571 7.57008 0.4
    endloop
  endfacet
  facet normal 0 0 -1
    outer loop
      vertex -4.01335 8.44354 0.4
      vertex -0.160534 8.05534 0.4
      vertex -0.321077 0.388207 0.4
    endloop
  endfacet
  facet normal 0 0 -1
    outer loop
      vertex -0.321077 0.388207 0.4
      vertex -0.160534 8.05534 0.4
      vertex 3.85281 0.19409 0.4
    endloop
  endfacet
  facet normal -0 0 -1
    outer loop
      vertex -16.9363 -0.873478 0.4
      vertex -20.9497 -1.74696 0.4
      vertex -18.7022 5.62903 0.4
    endloop
  endfacet
  facet normal 0 0 -1
    outer loop
      vertex -8.58855 0.0970465 0.4
      vertex -7.38455 6.89071 0.4
      vertex -4.41468 -0.0970554 0.4
    endloop
  endfacet
  facet normal -0 -0 -1
    outer loop
      vertex 53.6183 -32.2214 0.4
      vertex 57.15 -44.45 0.4
      vertex 49.7654 -31.3479 0.4
    endloop
  endfacet
  facet normal 0 0 -1
    outer loop
      vertex -18.7022 5.62903 0.4
      vertex -15.0902 6.98776 0.4
      vertex -16.9363 -0.873478 0.4
    endloop
  endfacet
  facet normal 0 0 -1
    outer loop
      vertex -22.6353 5.43493 0.4
      vertex -18.7022 5.62903 0.4
      vertex -20.9497 -1.74696 0.4
    endloop
  endfacet
  facet normal 0 0 -1
    outer loop
      vertex -30.1803 4.4644 0.4
      vertex -33.0699 -3.10569 0.4
      vertex -33.8726 3.39682 0.4
    endloop
  endfacet
  facet normal 0 0 -1
    outer loop
      vertex -29.0566 -2.81453 0.4
      vertex -26.0867 4.17324 0.4
      vertex -25.0433 -2.0381 0.4
    endloop
  endfacet
  facet normal 0 0 -1
    outer loop
      vertex -37.8057 2.71746 0.4
      vertex -33.0699 -3.10569 0.4
      vertex -37.0833 -3.88211 0.4
    endloop
  endfacet
  facet normal 0 0 -1
    outer loop
      vertex -37.8057 2.71746 0.4
      vertex -33.8726 3.39682 0.4
      vertex -33.0699 -3.10569 0.4
    endloop
  endfacet
  facet normal -0 0 -1
    outer loop
      vertex -41.0966 -4.27031 0.4
      vertex -44.6284 -5.14379 0.4
      vertex -44.9494 -1.16464 0.4
    endloop
  endfacet
  facet normal 0 -0 -1
    outer loop
      vertex -41.4177 1.26167 0.4
      vertex -41.0966 -4.27031 0.4
      vertex -44.9494 -1.16464 0.4
    endloop
  endfacet
  facet normal 0 0 -1
    outer loop
      vertex -47.9193 -3.88211 0.4
      vertex -44.9494 -1.16464 0.4
      vertex -44.6284 -5.14379 0.4
    endloop
  endfacet
  facet normal 0 0 -1
    outer loop
      vertex -41.4177 1.26167 0.4
      vertex -37.0833 -3.88211 0.4
      vertex -41.0966 -4.27031 0.4
    endloop
  endfacet
  facet normal 0 0 -1
    outer loop
      vertex -41.4177 1.26167 0.4
      vertex -37.8057 2.71746 0.4
      vertex -37.0833 -3.88211 0.4
    endloop
  endfacet
  facet normal 0 -0 -1
    outer loop
      vertex 23.2774 2.2322 0.4
      vertex 24.7222 -4.27031 0.4
      vertex 20.6286 -3.59095 0.4
    endloop
  endfacet
  facet normal 0 0 -1
    outer loop
      vertex -49.1233 -21.3515 0.4
      vertex -45.11 -19.2164 0.4
      vertex -26.1915 -34.8023 0.4
    endloop
  endfacet
  facet normal -0 -0 -1
    outer loop
      vertex 57.15 -33.8713 0.4
      vertex 57.15 -44.45 0.4
      vertex 53.6183 -32.2214 0.4
    endloop
  endfacet
  facet normal 0 0 -1
    outer loop
      vertex -45.11 -19.2164 0.4
      vertex -37.0833 -19.2164 0.4
      vertex -26.1915 -34.8023 0.4
    endloop
  endfacet
  facet normal -0 0 -1
    outer loop
      vertex -29.0566 -2.81453 0.4
      vertex -33.0699 -3.10569 0.4
      vertex -30.1803 4.4644 0.4
    endloop
  endfacet
  facet normal 0 0 -1
    outer loop
      vertex -25.0433 -2.0381 0.4
      vertex -26.0867 4.17324 0.4
      vertex -22.6353 5.43493 0.4
    endloop
  endfacet
  facet normal -0 -0 -1
    outer loop
      vertex -33.0699 -21.0604 0.4
      vertex -26.1915 -34.8023 0.4
      vertex -37.0833 -19.2164 0.4
    endloop
  endfacet
  facet normal -0 0 -1
    outer loop
      vertex -20.9497 -1.74696 0.4
      vertex -25.0433 -2.0381 0.4
      vertex -22.6353 5.43493 0.4
    endloop
  endfacet
  facet normal 0 0 -1
    outer loop
      vertex -7.38455 6.89071 0.4
      vertex -4.01335 8.44354 0.4
      vertex -4.41468 -0.0970554 0.4
    endloop
  endfacet
  facet normal 0 0 -1
    outer loop
      vertex -12.6822 -0.679376 0.4
      vertex -11.1571 7.57008 0.4
      vertex -8.58855 0.0970465 0.4
    endloop
  endfacet
  facet normal -0 0 -1
    outer loop
      vertex -19.0232 -35.133 0.4
      vertex -22.6353 -36.1035 0.4
      vertex -19.8259 -19.5075 0.4
    endloop
  endfacet
  facet normal 0 0 -1
    outer loop
      vertex -0.160534 8.05534 0.4
      vertex 3.45147 9.12292 0.4
      vertex 3.85281 0.19409 0.4
    endloop
  endfacet
  facet normal 0 0 -1
    outer loop
      vertex -11.1571 7.57008 0.4
      vertex -7.38455 6.89071 0.4
      vertex -8.58855 0.0970465 0.4
    endloop
  endfacet
  facet normal 0 0 -1
    outer loop
      vertex 32.7489 -6.30842 0.4
      vertex 28.8961 -5.43494 0.4
      vertex 33.0699 -1.35874 0.4
    endloop
  endfacet
  facet normal 0 0 -1
    outer loop
      vertex 8.10694 -0.485274 0.4
      vertex 3.85281 0.19409 0.4
      vertex 6.74241 8.1524 0.4
    endloop
  endfacet
  facet normal 0 0 -1
    outer loop
      vertex 3.85281 0.19409 0.4
      vertex 3.45147 9.12292 0.4
      vertex 6.74241 8.1524 0.4
    endloop
  endfacet
  facet normal 0 0 -1
    outer loop
      vertex -4.41468 -0.0970554 0.4
      vertex -4.01335 8.44354 0.4
      vertex -0.321077 0.388207 0.4
    endloop
  endfacet
  facet normal 0 0 -1
    outer loop
      vertex 24.7222 -4.27031 0.4
      vertex 26.8091 1.55283 0.4
      vertex 29.5382 -0.485274 0.4
    endloop
  endfacet
  facet normal -0 0 -1
    outer loop
      vertex 13.9664 6.21135 0.4
      vertex 12.2808 -1.55284 0.4
      vertex 10.0334 6.59955 0.4
    endloop
  endfacet
  facet normal 0 0 -1
    outer loop
      vertex -26.1915 -34.8023 0.4
      vertex -22.6353 -36.1035 0.4
      vertex -25.6854 -35.6182 0.4
    endloop
  endfacet
  facet normal 0 0 -1
    outer loop
      vertex -12.923 -22.6132 0.4
      vertex -10.2742 -25.6218 0.4
      vertex -11.4782 -32.4155 0.4
    endloop
  endfacet
  facet normal 0 0 -1
    outer loop
      vertex 12.2808 -1.55284 0.4
      vertex 8.10694 -0.485274 0.4
      vertex 10.0334 6.59955 0.4
    endloop
  endfacet
  facet normal 0 0 -1
    outer loop
      vertex 17.0968 4.75556 0.4
      vertex 16.535 -2.42632 0.4
      vertex 12.2808 -1.55284 0.4
    endloop
  endfacet
  facet normal 0 -0 -1
    outer loop
      vertex 17.0968 4.75556 0.4
      vertex 20.3878 3.97914 0.4
      vertex 16.535 -2.42632 0.4
    endloop
  endfacet
  facet normal 0 0 -1
    outer loop
      vertex -14.9296 -33.9684 0.4
      vertex -16.3744 -21.6427 0.4
      vertex -12.923 -22.6132 0.4
    endloop
  endfacet
  facet normal 0 0 -1
    outer loop
      vertex 23.2774 2.2322 0.4
      vertex 26.8091 1.55283 0.4
      vertex 24.7222 -4.27031 0.4
    endloop
  endfacet
  facet normal 0 0 -1
    outer loop
      vertex 28.8961 -5.43494 0.4
      vertex 29.5382 -0.485274 0.4
      vertex 33.0699 -1.35874 0.4
    endloop
  endfacet
  facet normal 0 0 -1
    outer loop
      vertex 40.7756 -8.73473 0.4
      vertex 36.7622 -7.7642 0.4
      vertex 39.0097 -4.36737 0.4
    endloop
  endfacet
  facet normal 0 0 -1
    outer loop
      vertex 36.7622 -7.7642 0.4
      vertex 35.9595 -3.29979 0.4
      vertex 39.0097 -4.36737 0.4
    endloop
  endfacet
  facet normal 0 0 -1
    outer loop
      vertex 39.0097 -4.36737 0.4
      vertex 41.5782 -6.11432 0.4
      vertex 40.7756 -8.73473 0.4
    endloop
  endfacet
  facet normal 0 0 -1
    outer loop
      vertex 44.6284 -9.41409 0.4
      vertex 40.7756 -8.73473 0.4
      vertex 44.3073 -6.59958 0.4
    endloop
  endfacet
  facet normal 0 0 -1
    outer loop
      vertex 23.9195 -37.6563 0.4
      vertex 26.4881 -33.5801 0.4
      vertex 25.8078 -40.8528 0.4
    endloop
  endfacet
  facet normal -0 -0 -1
    outer loop
      vertex -23.0366 -41.2473 0.4
      vertex -22.6353 -44.45 0.4
      vertex -25.2038 -37.4622 0.4
    endloop
  endfacet
  facet normal -0 -0 -1
    outer loop
      vertex -29.8593 -23.6808 0.4
      vertex -29.3817 -24.7831 0.4
      vertex -33.0699 -21.0604 0.4
    endloop
  endfacet
  facet normal 0 -0 -1
    outer loop
      vertex -10.2742 -25.6218 0.4
      vertex -9.79256 -29.0187 0.4
      vertex -11.4782 -32.4155 0.4
    endloop
  endfacet
  facet normal 0 -0 -1
    outer loop
      vertex -12.923 -22.6132 0.4
      vertex -11.4782 -32.4155 0.4
      vertex -14.9296 -33.9684 0.4
    endloop
  endfacet
  facet normal 0 -0 -1
    outer loop
      vertex 26.4881 -33.5801 0.4
      vertex 30.0198 -30.5715 0.4
      vertex 25.8078 -40.8528 0.4
    endloop
  endfacet
  facet normal 0 -0 -1
    outer loop
      vertex 30.0198 -30.5715 0.4
      vertex 33.8726 -28.9216 0.4
      vertex 25.8078 -40.8528 0.4
    endloop
  endfacet
  facet normal 0 0 -1
    outer loop
      vertex -16.2139 -44.45 0.4
      vertex -4.89629 -37.9475 0.4
      vertex -1.04347 -38.6269 0.4
    endloop
  endfacet
  facet normal 0 0 -1
    outer loop
      vertex 45.8324 -29.8921 0.4
      vertex 49.7654 -31.3479 0.4
      vertex 57.15 -44.45 0.4
    endloop
  endfacet
  facet normal 0 -0 -1
    outer loop
      vertex -16.3744 -21.6427 0.4
      vertex -14.9296 -33.9684 0.4
      vertex -19.0232 -35.133 0.4
    endloop
  endfacet
  facet normal -0 0 -1
    outer loop
      vertex -16.3744 -21.6427 0.4
      vertex -19.0232 -35.133 0.4
      vertex -19.8259 -19.5075 0.4
    endloop
  endfacet
  facet normal 0 0 -1
    outer loop
      vertex -19.8259 -19.5075 0.4
      vertex -22.6353 -36.1035 0.4
      vertex -27.4513 -21.4486 0.4
    endloop
  endfacet
  facet normal 0 0 -1
    outer loop
      vertex -27.4513 -21.4486 0.4
      vertex -23.9998 -18.9252 0.4
      vertex -19.8259 -19.5075 0.4
    endloop
  endfacet
  facet normal 0 0 -1
    outer loop
      vertex -26.1915 -34.8023 0.4
      vertex -27.4513 -21.4486 0.4
      vertex -22.6353 -36.1035 0.4
    endloop
  endfacet
  facet normal 0 0 -1
    outer loop
      vertex -26.1915 -34.8023 0.4
      vertex -29.3817 -24.7831 0.4
      vertex -27.4513 -21.4486 0.4
    endloop
  endfacet
  facet normal 0 0 -1
    outer loop
      vertex -33.0699 -21.0604 0.4
      vertex -29.3817 -24.7831 0.4
      vertex -26.1915 -34.8023 0.4
    endloop
  endfacet
  facet normal 0 0 -1
    outer loop
      vertex -37.0833 -19.2164 0.4
      vertex -45.11 -19.2164 0.4
      vertex -41.0966 -18.537 0.4
    endloop
  endfacet
  facet normal 0 -0 -1
    outer loop
      vertex -53.1367 -24.2631 0.4
      vertex -49.1233 -21.3515 0.4
      vertex -57.15 -44.45 0.4
    endloop
  endfacet
  facet normal 0 0 -1
    outer loop
      vertex -57.15 -44.45 0.4
      vertex -49.1233 -21.3515 0.4
      vertex -26.1915 -34.8023 0.4
    endloop
  endfacet
  facet normal -0 0 -1
    outer loop
      vertex -25.2038 -37.4622 0.4
      vertex -57.15 -44.45 0.4
      vertex -26.1915 -34.8023 0.4
    endloop
  endfacet
  facet normal 0 0 -1
    outer loop
      vertex -53.1367 -24.2631 0.4
      vertex -57.15 -44.45 0.4
      vertex -57.15 -25.8159 0.4
    endloop
  endfacet
  facet normal 0 -0 -1
    outer loop
      vertex -25.2038 -37.4622 0.4
      vertex -22.6353 -44.45 0.4
      vertex -57.15 -44.45 0.4
    endloop
  endfacet
  facet normal 0 0 -1
    outer loop
      vertex 57.15 -44.45 0.4
      vertex 41.7388 -29.698 0.4
      vertex 45.8324 -29.8921 0.4
    endloop
  endfacet
  facet normal 0 0 -1
    outer loop
      vertex 25.8078 -40.8528 0.4
      vertex 33.8726 -28.9216 0.4
      vertex 38.207 -28.7275 0.4
    endloop
  endfacet
  facet normal -0 0 -1
    outer loop
      vertex 41.7388 -29.698 0.4
      vertex 25.8078 -40.8528 0.4
      vertex 38.207 -28.7275 0.4
    endloop
  endfacet
  facet normal 0 -0 -1
    outer loop
      vertex 41.7388 -29.698 0.4
      vertex 57.15 -44.45 0.4
      vertex 25.8078 -40.8528 0.4
    endloop
  endfacet
  facet normal 0 -0 -1
    outer loop
      vertex 25.8078 -40.8528 0.4
      vertex 57.15 -44.45 0.4
      vertex -16.2139 -44.45 0.4
    endloop
  endfacet
  facet normal -0 -0 -1
    outer loop
      vertex 23.3576 -40.5679 0.4
      vertex 25.8078 -40.8528 0.4
      vertex 15.4112 -40.3738 0.4
    endloop
  endfacet
  facet normal 0 -0 -1
    outer loop
      vertex 19.264 -39.9856 0.4
      vertex 23.3576 -40.5679 0.4
      vertex 15.4112 -40.3738 0.4
    endloop
  endfacet
  facet normal -0 0 -1
    outer loop
      vertex 15.4112 -40.3738 0.4
      vertex -16.2139 -44.45 0.4
      vertex 11.0768 -39.6944 0.4
    endloop
  endfacet
  facet normal -0 0 -1
    outer loop
      vertex 11.0768 -39.6944 0.4
      vertex -16.2139 -44.45 0.4
      vertex 7.06348 -38.918 0.4
    endloop
  endfacet
  facet normal -0 0 -1
    outer loop
      vertex 7.06348 -38.918 0.4
      vertex -16.2139 -44.45 0.4
      vertex -1.04347 -38.6269 0.4
    endloop
  endfacet
  facet normal 0 -0 -1
    outer loop
      vertex 3.1304 -38.0446 0.4
      vertex 7.06348 -38.918 0.4
      vertex -1.04347 -38.6269 0.4
    endloop
  endfacet
  facet normal 0 -0 -1
    outer loop
      vertex -12.8427 -39.2092 0.4
      vertex -8.82936 -37.8504 0.4
      vertex -16.2139 -44.45 0.4
    endloop
  endfacet
  facet normal 0 0 -1
    outer loop
      vertex -16.2139 -42.7031 0.4
      vertex -12.8427 -39.2092 0.4
      vertex -16.2139 -44.45 0.4
    endloop
  endfacet
  facet normal 0 0 -1
    outer loop
      vertex -16.2139 -44.45 0.4
      vertex -8.82936 -37.8504 0.4
      vertex -4.89629 -37.9475 0.4
    endloop
  endfacet
  facet normal -0 0 -1
    outer loop
      vertex 25.8078 -40.8528 0.4
      vertex -16.2139 -44.45 0.4
      vertex 15.4112 -40.3738 0.4
    endloop
  endfacet
  facet normal 0 -0 1
    outer loop
      vertex 44.6284 -9.41409 1.2
      vertex 46.7956 -7.95831 1.2
      vertex 44.3073 -6.59958 1.2
    endloop
  endfacet
  facet normal 0 0 1
    outer loop
      vertex 32.7489 -6.30842 1.2
      vertex 35.9595 -3.29979 1.2
      vertex 33.0699 -1.35874 1.2
    endloop
  endfacet
  facet normal 0 0 1
    outer loop
      vertex 41.5782 -6.11432 1.2
      vertex 40.7756 -8.73473 1.2
      vertex 44.3073 -6.59958 1.2
    endloop
  endfacet
  facet normal 0 0 1
    outer loop
      vertex 36.7622 -7.7642 1.2
      vertex 35.9595 -3.29979 1.2
      vertex 32.7489 -6.30842 1.2
    endloop
  endfacet
  facet normal 0 -0 1
    outer loop
      vertex 28.8961 -5.43494 1.2
      vertex 29.5382 -0.485274 1.2
      vertex 24.7222 -4.27031 1.2
    endloop
  endfacet
  facet normal -0 0 1
    outer loop
      vertex 16.535 -2.42632 1.2
      vertex 20.6286 -3.59095 1.2
      vertex 20.3878 3.97914 1.2
    endloop
  endfacet
  facet normal 0 0 1
    outer loop
      vertex -26.0867 4.17324 1.2
      vertex -30.1803 4.4644 1.2
      vertex -29.0566 -2.81453 1.2
    endloop
  endfacet
  facet normal 0 0 1
    outer loop
      vertex 23.2774 2.2322 1.2
      vertex 20.3878 3.97914 1.2
      vertex 20.6286 -3.59095 1.2
    endloop
  endfacet
  facet normal 0 0 1
    outer loop
      vertex -12.6822 -0.679376 1.2
      vertex -15.0902 6.98776 1.2
      vertex -16.9363 -0.873478 1.2
    endloop
  endfacet
  facet normal 0 0 1
    outer loop
      vertex 17.0968 4.75556 1.2
      vertex 13.9664 6.21135 1.2
      vertex 12.2808 -1.55284 1.2
    endloop
  endfacet
  facet normal 0 -0 1
    outer loop
      vertex 8.10694 -0.485274 1.2
      vertex 10.0334 6.59955 1.2
      vertex 6.74241 8.1524 1.2
    endloop
  endfacet
  facet normal 0 0 1
    outer loop
      vertex -11.1571 7.57008 1.2
      vertex -15.0902 6.98776 1.2
      vertex -12.6822 -0.679376 1.2
    endloop
  endfacet
  facet normal 0 -0 1
    outer loop
      vertex -0.321077 0.388207 1.2
      vertex -0.160534 8.05534 1.2
      vertex -4.01335 8.44354 1.2
    endloop
  endfacet
  facet normal 0 0 1
    outer loop
      vertex 3.85281 0.19409 1.2
      vertex -0.160534 8.05534 1.2
      vertex -0.321077 0.388207 1.2
    endloop
  endfacet
  facet normal 0 0 1
    outer loop
      vertex -18.7022 5.62903 1.2
      vertex -20.9497 -1.74696 1.2
      vertex -16.9363 -0.873478 1.2
    endloop
  endfacet
  facet normal 0 0 1
    outer loop
      vertex -4.41468 -0.0970554 1.2
      vertex -7.38455 6.89071 1.2
      vertex -8.58855 0.0970465 1.2
    endloop
  endfacet
  facet normal 0 0 1
    outer loop
      vertex 49.7654 -31.3479 1.2
      vertex 57.15 -44.45 1.2
      vertex 53.6183 -32.2214 1.2
    endloop
  endfacet
  facet normal 0 -0 1
    outer loop
      vertex -16.9363 -0.873478 1.2
      vertex -15.0902 6.98776 1.2
      vertex -18.7022 5.62903 1.2
    endloop
  endfacet
  facet normal 0 -0 1
    outer loop
      vertex -20.9497 -1.74696 1.2
      vertex -18.7022 5.62903 1.2
      vertex -22.6353 5.43493 1.2
    endloop
  endfacet
  facet normal -0 0 1
    outer loop
      vertex -33.8726 3.39682 1.2
      vertex -33.0699 -3.10569 1.2
      vertex -30.1803 4.4644 1.2
    endloop
  endfacet
  facet normal 0 0 1
    outer loop
      vertex -25.0433 -2.0381 1.2
      vertex -26.0867 4.17324 1.2
      vertex -29.0566 -2.81453 1.2
    endloop
  endfacet
  facet normal 0 -0 1
    outer loop
      vertex -37.0833 -3.88211 1.2
      vertex -33.0699 -3.10569 1.2
      vertex -37.8057 2.71746 1.2
    endloop
  endfacet
  facet normal 0 0 1
    outer loop
      vertex -33.0699 -3.10569 1.2
      vertex -33.8726 3.39682 1.2
      vertex -37.8057 2.71746 1.2
    endloop
  endfacet
  facet normal 0 0 1
    outer loop
      vertex -44.9494 -1.16464 1.2
      vertex -44.6284 -5.14379 1.2
      vertex -41.0966 -4.27031 1.2
    endloop
  endfacet
  facet normal -0 0 1
    outer loop
      vertex -44.9494 -1.16464 1.2
      vertex -41.0966 -4.27031 1.2
      vertex -41.4177 1.26167 1.2
    endloop
  endfacet
  facet normal 0 0 1
    outer loop
      vertex -44.6284 -5.14379 1.2
      vertex -44.9494 -1.16464 1.2
      vertex -47.9193 -3.88211 1.2
    endloop
  endfacet
  facet normal 0 -0 1
    outer loop
      vertex -41.0966 -4.27031 1.2
      vertex -37.0833 -3.88211 1.2
      vertex -41.4177 1.26167 1.2
    endloop
  endfacet
  facet normal 0 0 1
    outer loop
      vertex -37.0833 -3.88211 1.2
      vertex -37.8057 2.71746 1.2
      vertex -41.4177 1.26167 1.2
    endloop
  endfacet
  facet normal -0 0 1
    outer loop
      vertex 20.6286 -3.59095 1.2
      vertex 24.7222 -4.27031 1.2
      vertex 23.2774 2.2322 1.2
    endloop
  endfacet
  facet normal 0 0 1
    outer loop
      vertex -26.1915 -34.8023 1.2
      vertex -45.11 -19.2164 1.2
      vertex -49.1233 -21.3515 1.2
    endloop
  endfacet
  facet normal 0 0 1
    outer loop
      vertex 53.6183 -32.2214 1.2
      vertex 57.15 -44.45 1.2
      vertex 57.15 -33.8713 1.2
    endloop
  endfacet
  facet normal 0 0 1
    outer loop
      vertex -26.1915 -34.8023 1.2
      vertex -37.0833 -19.2164 1.2
      vertex -45.11 -19.2164 1.2
    endloop
  endfacet
  facet normal 0 0 1
    outer loop
      vertex -30.1803 4.4644 1.2
      vertex -33.0699 -3.10569 1.2
      vertex -29.0566 -2.81453 1.2
    endloop
  endfacet
  facet normal 0 0 1
    outer loop
      vertex -22.6353 5.43493 1.2
      vertex -26.0867 4.17324 1.2
      vertex -25.0433 -2.0381 1.2
    endloop
  endfacet
  facet normal 0 0 1
    outer loop
      vertex -37.0833 -19.2164 1.2
      vertex -26.1915 -34.8023 1.2
      vertex -33.0699 -21.0604 1.2
    endloop
  endfacet
  facet normal 0 0 1
    outer loop
      vertex -22.6353 5.43493 1.2
      vertex -25.0433 -2.0381 1.2
      vertex -20.9497 -1.74696 1.2
    endloop
  endfacet
  facet normal 0 -0 1
    outer loop
      vertex -4.41468 -0.0970554 1.2
      vertex -4.01335 8.44354 1.2
      vertex -7.38455 6.89071 1.2
    endloop
  endfacet
  facet normal 0 0 1
    outer loop
      vertex -8.58855 0.0970465 1.2
      vertex -11.1571 7.57008 1.2
      vertex -12.6822 -0.679376 1.2
    endloop
  endfacet
  facet normal 0 0 1
    outer loop
      vertex -19.8259 -19.5075 1.2
      vertex -22.6353 -36.1035 1.2
      vertex -19.0232 -35.133 1.2
    endloop
  endfacet
  facet normal 0 0 1
    outer loop
      vertex 3.85281 0.19409 1.2
      vertex 3.45147 9.12292 1.2
      vertex -0.160534 8.05534 1.2
    endloop
  endfacet
  facet normal 0 -0 1
    outer loop
      vertex -8.58855 0.0970465 1.2
      vertex -7.38455 6.89071 1.2
      vertex -11.1571 7.57008 1.2
    endloop
  endfacet
  facet normal 0 0 1
    outer loop
      vertex 33.0699 -1.35874 1.2
      vertex 28.8961 -5.43494 1.2
      vertex 32.7489 -6.30842 1.2
    endloop
  endfacet
  facet normal 0 0 1
    outer loop
      vertex 6.74241 8.1524 1.2
      vertex 3.85281 0.19409 1.2
      vertex 8.10694 -0.485274 1.2
    endloop
  endfacet
  facet normal 0 0 1
    outer loop
      vertex 6.74241 8.1524 1.2
      vertex 3.45147 9.12292 1.2
      vertex 3.85281 0.19409 1.2
    endloop
  endfacet
  facet normal 0 0 1
    outer loop
      vertex -0.321077 0.388207 1.2
      vertex -4.01335 8.44354 1.2
      vertex -4.41468 -0.0970554 1.2
    endloop
  endfacet
  facet normal 0 0 1
    outer loop
      vertex 29.5382 -0.485274 1.2
      vertex 26.8091 1.55283 1.2
      vertex 24.7222 -4.27031 1.2
    endloop
  endfacet
  facet normal 0 0 1
    outer loop
      vertex 10.0334 6.59955 1.2
      vertex 12.2808 -1.55284 1.2
      vertex 13.9664 6.21135 1.2
    endloop
  endfacet
  facet normal -0 -0 1
    outer loop
      vertex -25.6854 -35.6182 1.2
      vertex -22.6353 -36.1035 1.2
      vertex -26.1915 -34.8023 1.2
    endloop
  endfacet
  facet normal 0 -0 1
    outer loop
      vertex -11.4782 -32.4155 1.2
      vertex -10.2742 -25.6218 1.2
      vertex -12.923 -22.6132 1.2
    endloop
  endfacet
  facet normal 0 0 1
    outer loop
      vertex 10.0334 6.59955 1.2
      vertex 8.10694 -0.485274 1.2
      vertex 12.2808 -1.55284 1.2
    endloop
  endfacet
  facet normal -0 0 1
    outer loop
      vertex 12.2808 -1.55284 1.2
      vertex 16.535 -2.42632 1.2
      vertex 17.0968 4.75556 1.2
    endloop
  endfacet
  facet normal 0 0 1
    outer loop
      vertex 16.535 -2.42632 1.2
      vertex 20.3878 3.97914 1.2
      vertex 17.0968 4.75556 1.2
    endloop
  endfacet
  facet normal 0 0 1
    outer loop
      vertex -12.923 -22.6132 1.2
      vertex -16.3744 -21.6427 1.2
      vertex -14.9296 -33.9684 1.2
    endloop
  endfacet
  facet normal 0 -0 1
    outer loop
      vertex 24.7222 -4.27031 1.2
      vertex 26.8091 1.55283 1.2
      vertex 23.2774 2.2322 1.2
    endloop
  endfacet
  facet normal 0 0 1
    outer loop
      vertex 33.0699 -1.35874 1.2
      vertex 29.5382 -0.485274 1.2
      vertex 28.8961 -5.43494 1.2
    endloop
  endfacet
  facet normal 0 0 1
    outer loop
      vertex 39.0097 -4.36737 1.2
      vertex 36.7622 -7.7642 1.2
      vertex 40.7756 -8.73473 1.2
    endloop
  endfacet
  facet normal 0 0 1
    outer loop
      vertex 39.0097 -4.36737 1.2
      vertex 35.9595 -3.29979 1.2
      vertex 36.7622 -7.7642 1.2
    endloop
  endfacet
  facet normal 0 -0 1
    outer loop
      vertex 40.7756 -8.73473 1.2
      vertex 41.5782 -6.11432 1.2
      vertex 39.0097 -4.36737 1.2
    endloop
  endfacet
  facet normal 0 0 1
    outer loop
      vertex 44.3073 -6.59958 1.2
      vertex 40.7756 -8.73473 1.2
      vertex 44.6284 -9.41409 1.2
    endloop
  endfacet
  facet normal 0 -0 1
    outer loop
      vertex 25.8078 -40.8528 1.2
      vertex 26.4881 -33.5801 1.2
      vertex 23.9195 -37.6563 1.2
    endloop
  endfacet
  facet normal 0 0 1
    outer loop
      vertex -25.2038 -37.4622 1.2
      vertex -22.6353 -44.45 1.2
      vertex -23.0366 -41.2473 1.2
    endloop
  endfacet
  facet normal 0 0 1
    outer loop
      vertex -33.0699 -21.0604 1.2
      vertex -29.3817 -24.7831 1.2
      vertex -29.8593 -23.6808 1.2
    endloop
  endfacet
  facet normal 0 0 1
    outer loop
      vertex -11.4782 -32.4155 1.2
      vertex -9.79256 -29.0187 1.2
      vertex -10.2742 -25.6218 1.2
    endloop
  endfacet
  facet normal 0 0 1
    outer loop
      vertex -14.9296 -33.9684 1.2
      vertex -11.4782 -32.4155 1.2
      vertex -12.923 -22.6132 1.2
    endloop
  endfacet
  facet normal 0 0 1
    outer loop
      vertex 25.8078 -40.8528 1.2
      vertex 30.0198 -30.5715 1.2
      vertex 26.4881 -33.5801 1.2
    endloop
  endfacet
  facet normal 0 0 1
    outer loop
      vertex 25.8078 -40.8528 1.2
      vertex 33.8726 -28.9216 1.2
      vertex 30.0198 -30.5715 1.2
    endloop
  endfacet
  facet normal 0 0 1
    outer loop
      vertex -1.04347 -38.6269 1.2
      vertex -4.89629 -37.9475 1.2
      vertex -16.2139 -44.45 1.2
    endloop
  endfacet
  facet normal 0 0 1
    outer loop
      vertex 57.15 -44.45 1.2
      vertex 49.7654 -31.3479 1.2
      vertex 45.8324 -29.8921 1.2
    endloop
  endfacet
  facet normal 0 0 1
    outer loop
      vertex -19.0232 -35.133 1.2
      vertex -14.9296 -33.9684 1.2
      vertex -16.3744 -21.6427 1.2
    endloop
  endfacet
  facet normal 0 0 1
    outer loop
      vertex -19.8259 -19.5075 1.2
      vertex -19.0232 -35.133 1.2
      vertex -16.3744 -21.6427 1.2
    endloop
  endfacet
  facet normal -0 0 1
    outer loop
      vertex -27.4513 -21.4486 1.2
      vertex -22.6353 -36.1035 1.2
      vertex -19.8259 -19.5075 1.2
    endloop
  endfacet
  facet normal 0 0 1
    outer loop
      vertex -19.8259 -19.5075 1.2
      vertex -23.9998 -18.9252 1.2
      vertex -27.4513 -21.4486 1.2
    endloop
  endfacet
  facet normal 0 0 1
    outer loop
      vertex -22.6353 -36.1035 1.2
      vertex -27.4513 -21.4486 1.2
      vertex -26.1915 -34.8023 1.2
    endloop
  endfacet
  facet normal 0 0 1
    outer loop
      vertex -27.4513 -21.4486 1.2
      vertex -29.3817 -24.7831 1.2
      vertex -26.1915 -34.8023 1.2
    endloop
  endfacet
  facet normal 0 0 1
    outer loop
      vertex -26.1915 -34.8023 1.2
      vertex -29.3817 -24.7831 1.2
      vertex -33.0699 -21.0604 1.2
    endloop
  endfacet
  facet normal 0 0 1
    outer loop
      vertex -41.0966 -18.537 1.2
      vertex -45.11 -19.2164 1.2
      vertex -37.0833 -19.2164 1.2
    endloop
  endfacet
  facet normal 0 0 1
    outer loop
      vertex -57.15 -44.45 1.2
      vertex -49.1233 -21.3515 1.2
      vertex -53.1367 -24.2631 1.2
    endloop
  endfacet
  facet normal 0 0 1
    outer loop
      vertex -26.1915 -34.8023 1.2
      vertex -49.1233 -21.3515 1.2
      vertex -57.15 -44.45 1.2
    endloop
  endfacet
  facet normal 0 0 1
    outer loop
      vertex -26.1915 -34.8023 1.2
      vertex -57.15 -44.45 1.2
      vertex -25.2038 -37.4622 1.2
    endloop
  endfacet
  facet normal -0 0 1
    outer loop
      vertex -57.15 -25.8159 1.2
      vertex -57.15 -44.45 1.2
      vertex -53.1367 -24.2631 1.2
    endloop
  endfacet
  facet normal 0 0 1
    outer loop
      vertex -57.15 -44.45 1.2
      vertex -22.6353 -44.45 1.2
      vertex -25.2038 -37.4622 1.2
    endloop
  endfacet
  facet normal 0 0 1
    outer loop
      vertex 45.8324 -29.8921 1.2
      vertex 41.7388 -29.698 1.2
      vertex 57.15 -44.45 1.2
    endloop
  endfacet
  facet normal 0 0 1
    outer loop
      vertex 38.207 -28.7275 1.2
      vertex 33.8726 -28.9216 1.2
      vertex 25.8078 -40.8528 1.2
    endloop
  endfacet
  facet normal 0 0 1
    outer loop
      vertex 38.207 -28.7275 1.2
      vertex 25.8078 -40.8528 1.2
      vertex 41.7388 -29.698 1.2
    endloop
  endfacet
  facet normal -0 0 1
    outer loop
      vertex 25.8078 -40.8528 1.2
      vertex 57.15 -44.45 1.2
      vertex 41.7388 -29.698 1.2
    endloop
  endfacet
  facet normal 0 0 1
    outer loop
      vertex -16.2139 -44.45 1.2
      vertex 57.15 -44.45 1.2
      vertex 25.8078 -40.8528 1.2
    endloop
  endfacet
  facet normal 0 0 1
    outer loop
      vertex 15.4112 -40.3738 1.2
      vertex 25.8078 -40.8528 1.2
      vertex 23.3576 -40.5679 1.2
    endloop
  endfacet
  facet normal -0 0 1
    outer loop
      vertex 15.4112 -40.3738 1.2
      vertex 23.3576 -40.5679 1.2
      vertex 19.264 -39.9856 1.2
    endloop
  endfacet
  facet normal 0 0 1
    outer loop
      vertex 11.0768 -39.6944 1.2
      vertex -16.2139 -44.45 1.2
      vertex 15.4112 -40.3738 1.2
    endloop
  endfacet
  facet normal 0 0 1
    outer loop
      vertex 7.06348 -38.918 1.2
      vertex -16.2139 -44.45 1.2
      vertex 11.0768 -39.6944 1.2
    endloop
  endfacet
  facet normal 0 0 1
    outer loop
      vertex -1.04347 -38.6269 1.2
      vertex -16.2139 -44.45 1.2
      vertex 7.06348 -38.918 1.2
    endloop
  endfacet
  facet normal -0 0 1
    outer loop
      vertex -1.04347 -38.6269 1.2
      vertex 7.06348 -38.918 1.2
      vertex 3.1304 -38.0446 1.2
    endloop
  endfacet
  facet normal 0 0 1
    outer loop
      vertex -16.2139 -44.45 1.2
      vertex -8.82936 -37.8504 1.2
      vertex -12.8427 -39.2092 1.2
    endloop
  endfacet
  facet normal 0 0 1
    outer loop
      vertex -16.2139 -44.45 1.2
      vertex -12.8427 -39.2092 1.2
      vertex -16.2139 -42.7031 1.2
    endloop
  endfacet
  facet normal 0 0 1
    outer loop
      vertex -4.89629 -37.9475 1.2
      vertex -8.82936 -37.8504 1.2
      vertex -16.2139 -44.45 1.2
    endloop
  endfacet
  facet normal 0 0 1
    outer loop
      vertex 15.4112 -40.3738 1.2
      vertex -16.2139 -44.45 1.2
      vertex 25.8078 -40.8528 1.2
    endloop
  endfacet
  facet normal 0.479253 0.877677 0
    outer loop
      vertex 44.3073 -6.59958 0.4
      vertex 46.7956 -7.95831 1.2
      vertex 46.7956 -7.95831 0.4
    endloop
  endfacet
  facet normal 0.479253 0.877677 -0
    outer loop
      vertex 44.3073 -6.59958 0.4
      vertex 44.3073 -6.59958 1.2
      vertex 46.7956 -7.95831 1.2
    endloop
  endfacet
  facet normal 0.175064 0.984557 0
    outer loop
      vertex 41.5782 -6.11432 0.4
      vertex 44.3073 -6.59958 1.2
      vertex 44.3073 -6.59958 0.4
    endloop
  endfacet
  facet normal 0.175064 0.984557 -0
    outer loop
      vertex 41.5782 -6.11432 0.4
      vertex 41.5782 -6.11432 1.2
      vertex 44.3073 -6.59958 1.2
    endloop
  endfacet
  facet normal 0.562391 0.826871 0
    outer loop
      vertex 39.0097 -4.36737 0.4
      vertex 41.5782 -6.11432 1.2
      vertex 41.5782 -6.11432 0.4
    endloop
  endfacet
  facet normal 0.562391 0.826871 -0
    outer loop
      vertex 39.0097 -4.36737 0.4
      vertex 39.0097 -4.36737 1.2
      vertex 41.5782 -6.11432 1.2
    endloop
  endfacet
  facet normal 0.330353 0.943857 0
    outer loop
      vertex 35.9595 -3.29979 0.4
      vertex 39.0097 -4.36737 1.2
      vertex 39.0097 -4.36737 0.4
    endloop
  endfacet
  facet normal 0.330353 0.943857 -0
    outer loop
      vertex 35.9595 -3.29979 0.4
      vertex 35.9595 -3.29979 1.2
      vertex 39.0097 -4.36737 1.2
    endloop
  endfacet
  facet normal 0.55761 0.830103 0
    outer loop
      vertex 33.0699 -1.35874 0.4
      vertex 35.9595 -3.29979 1.2
      vertex 35.9595 -3.29979 0.4
    endloop
  endfacet
  facet normal 0.55761 0.830103 -0
    outer loop
      vertex 33.0699 -1.35874 0.4
      vertex 33.0699 -1.35874 1.2
      vertex 35.9595 -3.29979 1.2
    endloop
  endfacet
  facet normal 0.240088 0.970751 0
    outer loop
      vertex 29.5382 -0.485274 0.4
      vertex 33.0699 -1.35874 1.2
      vertex 33.0699 -1.35874 0.4
    endloop
  endfacet
  facet normal 0.240088 0.970751 -0
    outer loop
      vertex 29.5382 -0.485274 0.4
      vertex 29.5382 -0.485274 1.2
      vertex 33.0699 -1.35874 1.2
    endloop
  endfacet
  facet normal 0.59836 0.801227 0
    outer loop
      vertex 26.8091 1.55283 0.4
      vertex 29.5382 -0.485274 1.2
      vertex 29.5382 -0.485274 0.4
    endloop
  endfacet
  facet normal 0.59836 0.801227 -0
    outer loop
      vertex 26.8091 1.55283 0.4
      vertex 26.8091 1.55283 1.2
      vertex 29.5382 -0.485274 1.2
    endloop
  endfacet
  facet normal 0.1889 0.981996 0
    outer loop
      vertex 23.2774 2.2322 0.4
      vertex 26.8091 1.55283 1.2
      vertex 26.8091 1.55283 0.4
    endloop
  endfacet
  facet normal 0.1889 0.981996 -0
    outer loop
      vertex 23.2774 2.2322 0.4
      vertex 23.2774 2.2322 1.2
      vertex 26.8091 1.55283 1.2
    endloop
  endfacet
  facet normal 0.517363 0.855766 0
    outer loop
      vertex 20.3878 3.97914 0.4
      vertex 23.2774 2.2322 1.2
      vertex 23.2774 2.2322 0.4
    endloop
  endfacet
  facet normal 0.517363 0.855766 -0
    outer loop
      vertex 20.3878 3.97914 0.4
      vertex 20.3878 3.97914 1.2
      vertex 23.2774 2.2322 1.2
    endloop
  endfacet
  facet normal 0.229619 0.973281 0
    outer loop
      vertex 17.0968 4.75556 0.4
      vertex 20.3878 3.97914 1.2
      vertex 20.3878 3.97914 0.4
    endloop
  endfacet
  facet normal 0.229619 0.973281 -0
    outer loop
      vertex 17.0968 4.75556 0.4
      vertex 17.0968 4.75556 1.2
      vertex 20.3878 3.97914 1.2
    endloop
  endfacet
  facet normal 0.421681 0.906744 0
    outer loop
      vertex 13.9664 6.21135 0.4
      vertex 17.0968 4.75556 1.2
      vertex 17.0968 4.75556 0.4
    endloop
  endfacet
  facet normal 0.421681 0.906744 -0
    outer loop
      vertex 13.9664 6.21135 0.4
      vertex 13.9664 6.21135 1.2
      vertex 17.0968 4.75556 1.2
    endloop
  endfacet
  facet normal 0.098226 0.995164 0
    outer loop
      vertex 10.0334 6.59955 0.4
      vertex 13.9664 6.21135 1.2
      vertex 13.9664 6.21135 0.4
    endloop
  endfacet
  facet normal 0.098226 0.995164 -0
    outer loop
      vertex 10.0334 6.59955 0.4
      vertex 10.0334 6.59955 1.2
      vertex 13.9664 6.21135 1.2
    endloop
  endfacet
  facet normal 0.42673 0.904379 0
    outer loop
      vertex 6.74241 8.1524 0.4
      vertex 10.0334 6.59955 1.2
      vertex 10.0334 6.59955 0.4
    endloop
  endfacet
  facet normal 0.42673 0.904379 -0
    outer loop
      vertex 6.74241 8.1524 0.4
      vertex 6.74241 8.1524 1.2
      vertex 10.0334 6.59955 1.2
    endloop
  endfacet
  facet normal 0.282863 0.95916 0
    outer loop
      vertex 3.45147 9.12292 0.4
      vertex 6.74241 8.1524 1.2
      vertex 6.74241 8.1524 0.4
    endloop
  endfacet
  facet normal 0.282863 0.95916 -0
    outer loop
      vertex 3.45147 9.12292 0.4
      vertex 3.45147 9.12292 1.2
      vertex 6.74241 8.1524 1.2
    endloop
  endfacet
  facet normal -0.283443 0.958989 0
    outer loop
      vertex -0.160534 8.05534 0.4
      vertex 3.45147 9.12292 1.2
      vertex 3.45147 9.12292 0.4
    endloop
  endfacet
  facet normal -0.283443 0.958989 0
    outer loop
      vertex -0.160534 8.05534 0.4
      vertex -0.160534 8.05534 1.2
      vertex 3.45147 9.12292 1.2
    endloop
  endfacet
  facet normal 0.10025 0.994962 0
    outer loop
      vertex -4.01335 8.44354 0.4
      vertex -0.160534 8.05534 1.2
      vertex -0.160534 8.05534 0.4
    endloop
  endfacet
  facet normal 0.10025 0.994962 -0
    outer loop
      vertex -4.01335 8.44354 0.4
      vertex -4.01335 8.44354 1.2
      vertex -0.160534 8.05534 1.2
    endloop
  endfacet
  facet normal -0.418368 0.908278 0
    outer loop
      vertex -7.38455 6.89071 0.4
      vertex -4.01335 8.44354 1.2
      vertex -4.01335 8.44354 0.4
    endloop
  endfacet
  facet normal -0.418368 0.908278 0
    outer loop
      vertex -7.38455 6.89071 0.4
      vertex -7.38455 6.89071 1.2
      vertex -4.01335 8.44354 1.2
    endloop
  endfacet
  facet normal 0.177232 0.984169 0
    outer loop
      vertex -11.1571 7.57008 0.4
      vertex -7.38455 6.89071 1.2
      vertex -7.38455 6.89071 0.4
    endloop
  endfacet
  facet normal 0.177232 0.984169 -0
    outer loop
      vertex -11.1571 7.57008 0.4
      vertex -11.1571 7.57008 1.2
      vertex -7.38455 6.89071 1.2
    endloop
  endfacet
  facet normal -0.14646 0.989217 0
    outer loop
      vertex -15.0902 6.98776 0.4
      vertex -11.1571 7.57008 1.2
      vertex -11.1571 7.57008 0.4
    endloop
  endfacet
  facet normal -0.14646 0.989217 0
    outer loop
      vertex -15.0902 6.98776 0.4
      vertex -15.0902 6.98776 1.2
      vertex -11.1571 7.57008 1.2
    endloop
  endfacet
  facet normal -0.352084 0.935968 0
    outer loop
      vertex -18.7022 5.62903 0.4
      vertex -15.0902 6.98776 1.2
      vertex -15.0902 6.98776 0.4
    endloop
  endfacet
  facet normal -0.352084 0.935968 0
    outer loop
      vertex -18.7022 5.62903 0.4
      vertex -18.7022 5.62903 1.2
      vertex -15.0902 6.98776 1.2
    endloop
  endfacet
  facet normal -0.0492904 0.998784 0
    outer loop
      vertex -22.6353 5.43493 0.4
      vertex -18.7022 5.62903 1.2
      vertex -18.7022 5.62903 0.4
    endloop
  endfacet
  facet normal -0.0492904 0.998784 0
    outer loop
      vertex -22.6353 5.43493 0.4
      vertex -22.6353 5.43493 1.2
      vertex -18.7022 5.62903 1.2
    endloop
  endfacet
  facet normal -0.343337 0.939212 0
    outer loop
      vertex -26.0867 4.17324 0.4
      vertex -22.6353 5.43493 1.2
      vertex -22.6353 5.43493 0.4
    endloop
  endfacet
  facet normal -0.343337 0.939212 0
    outer loop
      vertex -26.0867 4.17324 0.4
      vertex -26.0867 4.17324 1.2
      vertex -22.6353 5.43493 1.2
    endloop
  endfacet
  facet normal 0.0709464 0.99748 0
    outer loop
      vertex -30.1803 4.4644 0.4
      vertex -26.0867 4.17324 1.2
      vertex -26.0867 4.17324 0.4
    endloop
  endfacet
  facet normal 0.0709464 0.99748 -0
    outer loop
      vertex -30.1803 4.4644 0.4
      vertex -30.1803 4.4644 1.2
      vertex -26.0867 4.17324 1.2
    endloop
  endfacet
  facet normal -0.27776 0.960651 0
    outer loop
      vertex -33.8726 3.39682 0.4
      vertex -30.1803 4.4644 1.2
      vertex -30.1803 4.4644 0.4
    endloop
  endfacet
  facet normal -0.27776 0.960651 0
    outer loop
      vertex -33.8726 3.39682 0.4
      vertex -33.8726 3.39682 1.2
      vertex -30.1803 4.4644 1.2
    endloop
  endfacet
  facet normal -0.170208 0.985408 0
    outer loop
      vertex -37.8057 2.71746 0.4
      vertex -33.8726 3.39682 1.2
      vertex -33.8726 3.39682 0.4
    endloop
  endfacet
  facet normal -0.170208 0.985408 0
    outer loop
      vertex -37.8057 2.71746 0.4
      vertex -37.8057 2.71746 1.2
      vertex -33.8726 3.39682 1.2
    endloop
  endfacet
  facet normal -0.373822 0.9275 0
    outer loop
      vertex -41.4177 1.26167 0.4
      vertex -37.8057 2.71746 1.2
      vertex -37.8057 2.71746 0.4
    endloop
  endfacet
  facet normal -0.373822 0.9275 0
    outer loop
      vertex -41.4177 1.26167 0.4
      vertex -41.4177 1.26167 1.2
      vertex -37.8057 2.71746 1.2
    endloop
  endfacet
  facet normal -0.566254 0.824231 0
    outer loop
      vertex -44.9494 -1.16464 0.4
      vertex -41.4177 1.26167 1.2
      vertex -41.4177 1.26167 0.4
    endloop
  endfacet
  facet normal -0.566254 0.824231 0
    outer loop
      vertex -44.9494 -1.16464 0.4
      vertex -44.9494 -1.16464 1.2
      vertex -41.4177 1.26167 1.2
    endloop
  endfacet
  facet normal -0.675058 0.737765 0
    outer loop
      vertex -47.9193 -3.88211 0.4
      vertex -44.9494 -1.16464 1.2
      vertex -44.9494 -1.16464 0.4
    endloop
  endfacet
  facet normal -0.675058 0.737765 0
    outer loop
      vertex -47.9193 -3.88211 0.4
      vertex -47.9193 -3.88211 1.2
      vertex -44.9494 -1.16464 1.2
    endloop
  endfacet
  facet normal -0.357978 -0.93373 0
    outer loop
      vertex -44.6284 -5.14379 0.4
      vertex -47.9193 -3.88211 1.2
      vertex -47.9193 -3.88211 0.4
    endloop
  endfacet
  facet normal -0.357978 -0.93373 0
    outer loop
      vertex -44.6284 -5.14379 0.4
      vertex -44.6284 -5.14379 1.2
      vertex -47.9193 -3.88211 1.2
    endloop
  endfacet
  facet normal 0.240085 -0.970752 0
    outer loop
      vertex -41.0966 -4.27031 0.4
      vertex -44.6284 -5.14379 1.2
      vertex -44.6284 -5.14379 0.4
    endloop
  endfacet
  facet normal 0.240085 -0.970752 0
    outer loop
      vertex -41.0966 -4.27031 0.4
      vertex -41.0966 -4.27031 1.2
      vertex -44.6284 -5.14379 1.2
    endloop
  endfacet
  facet normal 0.096279 -0.995354 0
    outer loop
      vertex -37.0833 -3.88211 0.4
      vertex -41.0966 -4.27031 1.2
      vertex -41.0966 -4.27031 0.4
    endloop
  endfacet
  facet normal 0.096279 -0.995354 0
    outer loop
      vertex -37.0833 -3.88211 0.4
      vertex -37.0833 -3.88211 1.2
      vertex -41.0966 -4.27031 1.2
    endloop
  endfacet
  facet normal 0.189935 -0.981797 0
    outer loop
      vertex -33.0699 -3.10569 0.4
      vertex -37.0833 -3.88211 1.2
      vertex -37.0833 -3.88211 0.4
    endloop
  endfacet
  facet normal 0.189935 -0.981797 0
    outer loop
      vertex -33.0699 -3.10569 0.4
      vertex -33.0699 -3.10569 1.2
      vertex -37.0833 -3.88211 1.2
    endloop
  endfacet
  facet normal 0.0723586 -0.997379 0
    outer loop
      vertex -29.0566 -2.81453 0.4
      vertex -33.0699 -3.10569 1.2
      vertex -33.0699 -3.10569 0.4
    endloop
  endfacet
  facet normal 0.0723586 -0.997379 0
    outer loop
      vertex -29.0566 -2.81453 0.4
      vertex -29.0566 -2.81453 1.2
      vertex -33.0699 -3.10569 1.2
    endloop
  endfacet
  facet normal 0.189942 -0.981795 0
    outer loop
      vertex -25.0433 -2.0381 0.4
      vertex -29.0566 -2.81453 1.2
      vertex -29.0566 -2.81453 0.4
    endloop
  endfacet
  facet normal 0.189942 -0.981795 0
    outer loop
      vertex -25.0433 -2.0381 0.4
      vertex -25.0433 -2.0381 1.2
      vertex -29.0566 -2.81453 1.2
    endloop
  endfacet
  facet normal 0.0709416 -0.99748 0
    outer loop
      vertex -20.9497 -1.74696 0.4
      vertex -25.0433 -2.0381 1.2
      vertex -25.0433 -2.0381 0.4
    endloop
  endfacet
  facet normal 0.0709416 -0.99748 0
    outer loop
      vertex -20.9497 -1.74696 0.4
      vertex -20.9497 -1.74696 1.2
      vertex -25.0433 -2.0381 1.2
    endloop
  endfacet
  facet normal 0.212663 -0.977126 0
    outer loop
      vertex -16.9363 -0.873478 0.4
      vertex -20.9497 -1.74696 1.2
      vertex -20.9497 -1.74696 0.4
    endloop
  endfacet
  facet normal 0.212663 -0.977126 0
    outer loop
      vertex -16.9363 -0.873478 0.4
      vertex -16.9363 -0.873478 1.2
      vertex -20.9497 -1.74696 1.2
    endloop
  endfacet
  facet normal 0.0455796 -0.998961 0
    outer loop
      vertex -12.6822 -0.679376 0.4
      vertex -16.9363 -0.873478 1.2
      vertex -16.9363 -0.873478 0.4
    endloop
  endfacet
  facet normal 0.0455796 -0.998961 0
    outer loop
      vertex -12.6822 -0.679376 0.4
      vertex -12.6822 -0.679376 1.2
      vertex -16.9363 -0.873478 1.2
    endloop
  endfacet
  facet normal 0.186343 -0.982485 0
    outer loop
      vertex -8.58855 0.0970465 0.4
      vertex -12.6822 -0.679376 1.2
      vertex -12.6822 -0.679376 0.4
    endloop
  endfacet
  facet normal 0.186343 -0.982485 0
    outer loop
      vertex -8.58855 0.0970465 0.4
      vertex -8.58855 0.0970465 1.2
      vertex -12.6822 -0.679376 1.2
    endloop
  endfacet
  facet normal -0.0464539 -0.99892 0
    outer loop
      vertex -4.41468 -0.0970554 0.4
      vertex -8.58855 0.0970465 1.2
      vertex -8.58855 0.0970465 0.4
    endloop
  endfacet
  facet normal -0.0464539 -0.99892 0
    outer loop
      vertex -4.41468 -0.0970554 0.4
      vertex -4.41468 -0.0970554 1.2
      vertex -8.58855 0.0970465 1.2
    endloop
  endfacet
  facet normal 0.117717 -0.993047 0
    outer loop
      vertex -0.321077 0.388207 0.4
      vertex -4.41468 -0.0970554 1.2
      vertex -4.41468 -0.0970554 0.4
    endloop
  endfacet
  facet normal 0.117717 -0.993047 0
    outer loop
      vertex -0.321077 0.388207 0.4
      vertex -0.321077 0.388207 1.2
      vertex -4.41468 -0.0970554 1.2
    endloop
  endfacet
  facet normal -0.0464573 -0.99892 0
    outer loop
      vertex 3.85281 0.19409 0.4
      vertex -0.321077 0.388207 1.2
      vertex -0.321077 0.388207 0.4
    endloop
  endfacet
  facet normal -0.0464573 -0.99892 0
    outer loop
      vertex 3.85281 0.19409 0.4
      vertex 3.85281 0.19409 1.2
      vertex -0.321077 0.388207 1.2
    endloop
  endfacet
  facet normal -0.157697 -0.987488 0
    outer loop
      vertex 8.10694 -0.485274 0.4
      vertex 3.85281 0.19409 1.2
      vertex 3.85281 0.19409 0.4
    endloop
  endfacet
  facet normal -0.157697 -0.987488 0
    outer loop
      vertex 8.10694 -0.485274 0.4
      vertex 8.10694 -0.485274 1.2
      vertex 3.85281 0.19409 1.2
    endloop
  endfacet
  facet normal -0.247797 -0.968812 0
    outer loop
      vertex 12.2808 -1.55284 0.4
      vertex 8.10694 -0.485274 1.2
      vertex 8.10694 -0.485274 0.4
    endloop
  endfacet
  facet normal -0.247797 -0.968812 0
    outer loop
      vertex 12.2808 -1.55284 0.4
      vertex 12.2808 -1.55284 1.2
      vertex 8.10694 -0.485274 1.2
    endloop
  endfacet
  facet normal -0.201126 -0.979565 0
    outer loop
      vertex 16.535 -2.42632 0.4
      vertex 12.2808 -1.55284 1.2
      vertex 12.2808 -1.55284 0.4
    endloop
  endfacet
  facet normal -0.201126 -0.979565 0
    outer loop
      vertex 16.535 -2.42632 0.4
      vertex 16.535 -2.42632 1.2
      vertex 12.2808 -1.55284 1.2
    endloop
  endfacet
  facet normal -0.273641 -0.961832 0
    outer loop
      vertex 20.6286 -3.59095 0.4
      vertex 16.535 -2.42632 1.2
      vertex 16.535 -2.42632 0.4
    endloop
  endfacet
  facet normal -0.273641 -0.961832 0
    outer loop
      vertex 20.6286 -3.59095 0.4
      vertex 20.6286 -3.59095 1.2
      vertex 16.535 -2.42632 1.2
    endloop
  endfacet
  facet normal -0.163717 -0.986507 0
    outer loop
      vertex 24.7222 -4.27031 0.4
      vertex 20.6286 -3.59095 1.2
      vertex 20.6286 -3.59095 0.4
    endloop
  endfacet
  facet normal -0.163717 -0.986507 0
    outer loop
      vertex 24.7222 -4.27031 0.4
      vertex 24.7222 -4.27031 1.2
      vertex 20.6286 -3.59095 1.2
    endloop
  endfacet
  facet normal -0.268761 -0.963207 0
    outer loop
      vertex 28.8961 -5.43494 0.4
      vertex 24.7222 -4.27031 1.2
      vertex 24.7222 -4.27031 0.4
    endloop
  endfacet
  facet normal -0.268761 -0.963207 0
    outer loop
      vertex 28.8961 -5.43494 0.4
      vertex 28.8961 -5.43494 1.2
      vertex 24.7222 -4.27031 1.2
    endloop
  endfacet
  facet normal -0.221102 -0.975251 0
    outer loop
      vertex 32.7489 -6.30842 0.4
      vertex 28.8961 -5.43494 1.2
      vertex 28.8961 -5.43494 0.4
    endloop
  endfacet
  facet normal -0.221102 -0.975251 0
    outer loop
      vertex 32.7489 -6.30842 0.4
      vertex 32.7489 -6.30842 1.2
      vertex 28.8961 -5.43494 1.2
    endloop
  endfacet
  facet normal -0.340998 -0.940064 0
    outer loop
      vertex 36.7622 -7.7642 0.4
      vertex 32.7489 -6.30842 1.2
      vertex 32.7489 -6.30842 0.4
    endloop
  endfacet
  facet normal -0.340998 -0.940064 0
    outer loop
      vertex 36.7622 -7.7642 0.4
      vertex 36.7622 -7.7642 1.2
      vertex 32.7489 -6.30842 1.2
    endloop
  endfacet
  facet normal -0.235047 -0.971984 0
    outer loop
      vertex 40.7756 -8.73473 0.4
      vertex 36.7622 -7.7642 1.2
      vertex 36.7622 -7.7642 0.4
    endloop
  endfacet
  facet normal -0.235047 -0.971984 0
    outer loop
      vertex 40.7756 -8.73473 0.4
      vertex 40.7756 -8.73473 1.2
      vertex 36.7622 -7.7642 1.2
    endloop
  endfacet
  facet normal -0.17365 -0.984807 0
    outer loop
      vertex 44.6284 -9.41409 0.4
      vertex 40.7756 -8.73473 1.2
      vertex 40.7756 -8.73473 0.4
    endloop
  endfacet
  facet normal -0.17365 -0.984807 0
    outer loop
      vertex 44.6284 -9.41409 0.4
      vertex 44.6284 -9.41409 1.2
      vertex 40.7756 -8.73473 1.2
    endloop
  endfacet
  facet normal 0.557608 -0.830104 0
    outer loop
      vertex 46.7956 -7.95831 0.4
      vertex 44.6284 -9.41409 1.2
      vertex 44.6284 -9.41409 0.4
    endloop
  endfacet
  facet normal 0.557608 -0.830104 0
    outer loop
      vertex 46.7956 -7.95831 0.4
      vertex 46.7956 -7.95831 1.2
      vertex 44.6284 -9.41409 1.2
    endloop
  endfacet
  facet normal 0.86782 0.496879 0
    outer loop
      vertex -25.2038 -37.4622 0.4
      vertex -23.0366 -41.2473 1.2
      vertex -23.0366 -41.2473 0.4
    endloop
  endfacet
  facet normal 0.86782 0.496879 -0
    outer loop
      vertex -25.2038 -37.4622 0.4
      vertex -25.2038 -37.4622 1.2
      vertex -23.0366 -41.2473 1.2
    endloop
  endfacet
  facet normal 0.937456 0.348105 0
    outer loop
      vertex -26.1915 -34.8023 0.4
      vertex -25.2038 -37.4622 1.2
      vertex -25.2038 -37.4622 0.4
    endloop
  endfacet
  facet normal 0.937456 0.348105 -0
    outer loop
      vertex -26.1915 -34.8023 0.4
      vertex -26.1915 -34.8023 1.2
      vertex -25.2038 -37.4622 1.2
    endloop
  endfacet
  facet normal -0.84979 -0.527122 0
    outer loop
      vertex -25.6854 -35.6182 0.4
      vertex -26.1915 -34.8023 1.2
      vertex -26.1915 -34.8023 0.4
    endloop
  endfacet
  facet normal -0.84979 -0.527122 0
    outer loop
      vertex -25.6854 -35.6182 0.4
      vertex -25.6854 -35.6182 1.2
      vertex -26.1915 -34.8023 1.2
    endloop
  endfacet
  facet normal -0.157133 -0.987577 0
    outer loop
      vertex -22.6353 -36.1035 0.4
      vertex -25.6854 -35.6182 1.2
      vertex -25.6854 -35.6182 0.4
    endloop
  endfacet
  facet normal -0.157133 -0.987577 0
    outer loop
      vertex -22.6353 -36.1035 0.4
      vertex -22.6353 -36.1035 1.2
      vertex -25.6854 -35.6182 1.2
    endloop
  endfacet
  facet normal 0.259478 -0.965749 0
    outer loop
      vertex -19.0232 -35.133 0.4
      vertex -22.6353 -36.1035 1.2
      vertex -22.6353 -36.1035 0.4
    endloop
  endfacet
  facet normal 0.259478 -0.965749 0
    outer loop
      vertex -19.0232 -35.133 0.4
      vertex -19.0232 -35.133 1.2
      vertex -22.6353 -36.1035 1.2
    endloop
  endfacet
  facet normal 0.273635 -0.961834 0
    outer loop
      vertex -14.9296 -33.9684 0.4
      vertex -19.0232 -35.133 1.2
      vertex -19.0232 -35.133 0.4
    endloop
  endfacet
  facet normal 0.273635 -0.961834 0
    outer loop
      vertex -14.9296 -33.9684 0.4
      vertex -14.9296 -33.9684 1.2
      vertex -19.0232 -35.133 1.2
    endloop
  endfacet
  facet normal 0.410314 -0.911944 0
    outer loop
      vertex -11.4782 -32.4155 0.4
      vertex -14.9296 -33.9684 1.2
      vertex -14.9296 -33.9684 0.4
    endloop
  endfacet
  facet normal 0.410314 -0.911944 0
    outer loop
      vertex -11.4782 -32.4155 0.4
      vertex -11.4782 -32.4155 1.2
      vertex -14.9296 -33.9684 1.2
    endloop
  endfacet
  facet normal 0.895769 -0.44452 0
    outer loop
      vertex -9.79256 -29.0187 0.4
      vertex -11.4782 -32.4155 1.2
      vertex -11.4782 -32.4155 0.4
    endloop
  endfacet
  facet normal 0.895769 -0.44452 0
    outer loop
      vertex -9.79256 -29.0187 0.4
      vertex -9.79256 -29.0187 1.2
      vertex -11.4782 -32.4155 1.2
    endloop
  endfacet
  facet normal 0.990097 0.140384 0
    outer loop
      vertex -10.2742 -25.6218 0.4
      vertex -9.79256 -29.0187 1.2
      vertex -9.79256 -29.0187 0.4
    endloop
  endfacet
  facet normal 0.990097 0.140384 -0
    outer loop
      vertex -10.2742 -25.6218 0.4
      vertex -10.2742 -25.6218 1.2
      vertex -9.79256 -29.0187 1.2
    endloop
  endfacet
  facet normal 0.750561 0.660801 0
    outer loop
      vertex -12.923 -22.6132 0.4
      vertex -10.2742 -25.6218 1.2
      vertex -10.2742 -25.6218 0.4
    endloop
  endfacet
  facet normal 0.750561 0.660801 -0
    outer loop
      vertex -12.923 -22.6132 0.4
      vertex -12.923 -22.6132 1.2
      vertex -10.2742 -25.6218 1.2
    endloop
  endfacet
  facet normal 0.270692 0.962666 0
    outer loop
      vertex -16.3744 -21.6427 0.4
      vertex -12.923 -22.6132 1.2
      vertex -12.923 -22.6132 0.4
    endloop
  endfacet
  facet normal 0.270692 0.962666 -0
    outer loop
      vertex -16.3744 -21.6427 0.4
      vertex -16.3744 -21.6427 1.2
      vertex -12.923 -22.6132 1.2
    endloop
  endfacet
  facet normal 0.526098 0.850424 0
    outer loop
      vertex -19.8259 -19.5075 0.4
      vertex -16.3744 -21.6427 1.2
      vertex -16.3744 -21.6427 0.4
    endloop
  endfacet
  facet normal 0.526098 0.850424 -0
    outer loop
      vertex -19.8259 -19.5075 0.4
      vertex -19.8259 -19.5075 1.2
      vertex -16.3744 -21.6427 1.2
    endloop
  endfacet
  facet normal 0.138172 0.990408 0
    outer loop
      vertex -23.9998 -18.9252 0.4
      vertex -19.8259 -19.5075 1.2
      vertex -19.8259 -19.5075 0.4
    endloop
  endfacet
  facet normal 0.138172 0.990408 -0
    outer loop
      vertex -23.9998 -18.9252 0.4
      vertex -23.9998 -18.9252 1.2
      vertex -19.8259 -19.5075 1.2
    endloop
  endfacet
  facet normal -0.590192 0.807263 0
    outer loop
      vertex -27.4513 -21.4486 0.4
      vertex -23.9998 -18.9252 1.2
      vertex -23.9998 -18.9252 0.4
    endloop
  endfacet
  facet normal -0.590192 0.807263 0
    outer loop
      vertex -27.4513 -21.4486 0.4
      vertex -27.4513 -21.4486 1.2
      vertex -23.9998 -18.9252 1.2
    endloop
  endfacet
  facet normal -0.865438 0.501017 0
    outer loop
      vertex -29.3817 -24.7831 0.4
      vertex -27.4513 -21.4486 1.2
      vertex -27.4513 -21.4486 0.4
    endloop
  endfacet
  facet normal -0.865438 0.501017 0
    outer loop
      vertex -29.3817 -24.7831 0.4
      vertex -29.3817 -24.7831 1.2
      vertex -27.4513 -21.4486 1.2
    endloop
  endfacet
  facet normal 0.917575 0.397563 0
    outer loop
      vertex -29.8593 -23.6808 0.4
      vertex -29.3817 -24.7831 1.2
      vertex -29.3817 -24.7831 0.4
    endloop
  endfacet
  facet normal 0.917575 0.397563 -0
    outer loop
      vertex -29.8593 -23.6808 0.4
      vertex -29.8593 -23.6808 1.2
      vertex -29.3817 -24.7831 1.2
    endloop
  endfacet
  facet normal 0.632304 0.77472 0
    outer loop
      vertex -33.0699 -21.0604 0.4
      vertex -29.8593 -23.6808 1.2
      vertex -29.8593 -23.6808 0.4
    endloop
  endfacet
  facet normal 0.632304 0.77472 -0
    outer loop
      vertex -33.0699 -21.0604 0.4
      vertex -33.0699 -21.0604 1.2
      vertex -29.8593 -23.6808 1.2
    endloop
  endfacet
  facet normal 0.417501 0.908676 0
    outer loop
      vertex -37.0833 -19.2164 0.4
      vertex -33.0699 -21.0604 1.2
      vertex -33.0699 -21.0604 0.4
    endloop
  endfacet
  facet normal 0.417501 0.908676 -0
    outer loop
      vertex -37.0833 -19.2164 0.4
      vertex -37.0833 -19.2164 1.2
      vertex -33.0699 -21.0604 1.2
    endloop
  endfacet
  facet normal 0.166912 0.985972 0
    outer loop
      vertex -41.0966 -18.537 0.4
      vertex -37.0833 -19.2164 1.2
      vertex -37.0833 -19.2164 0.4
    endloop
  endfacet
  facet normal 0.166912 0.985972 -0
    outer loop
      vertex -41.0966 -18.537 0.4
      vertex -41.0966 -18.537 1.2
      vertex -37.0833 -19.2164 1.2
    endloop
  endfacet
  facet normal -0.166908 0.985972 0
    outer loop
      vertex -45.11 -19.2164 0.4
      vertex -41.0966 -18.537 1.2
      vertex -41.0966 -18.537 0.4
    endloop
  endfacet
  facet normal -0.166908 0.985972 0
    outer loop
      vertex -45.11 -19.2164 0.4
      vertex -45.11 -19.2164 1.2
      vertex -41.0966 -18.537 1.2
    endloop
  endfacet
  facet normal -0.469676 0.882839 0
    outer loop
      vertex -49.1233 -21.3515 0.4
      vertex -45.11 -19.2164 1.2
      vertex -45.11 -19.2164 0.4
    endloop
  endfacet
  facet normal -0.469676 0.882839 0
    outer loop
      vertex -49.1233 -21.3515 0.4
      vertex -49.1233 -21.3515 1.2
      vertex -45.11 -19.2164 1.2
    endloop
  endfacet
  facet normal -0.587217 0.80943 0
    outer loop
      vertex -53.1367 -24.2631 0.4
      vertex -49.1233 -21.3515 1.2
      vertex -49.1233 -21.3515 0.4
    endloop
  endfacet
  facet normal -0.587217 0.80943 0
    outer loop
      vertex -53.1367 -24.2631 0.4
      vertex -53.1367 -24.2631 1.2
      vertex -49.1233 -21.3515 1.2
    endloop
  endfacet
  facet normal -0.360845 0.932626 0
    outer loop
      vertex -57.15 -25.8159 0.4
      vertex -53.1367 -24.2631 1.2
      vertex -53.1367 -24.2631 0.4
    endloop
  endfacet
  facet normal -0.360845 0.932626 0
    outer loop
      vertex -57.15 -25.8159 0.4
      vertex -57.15 -25.8159 1.2
      vertex -53.1367 -24.2631 1.2
    endloop
  endfacet
  facet normal -1 0 0
    outer loop
      vertex -57.15 -44.45 0.4
      vertex -57.15 -25.8159 1.2
      vertex -57.15 -25.8159 0.4
    endloop
  endfacet
  facet normal -1 0 0
    outer loop
      vertex -57.15 -44.45 0.4
      vertex -57.15 -44.45 1.2
      vertex -57.15 -25.8159 1.2
    endloop
  endfacet
  facet normal 0 -1 0
    outer loop
      vertex -22.6353 -44.45 0.4
      vertex -57.15 -44.45 1.2
      vertex -57.15 -44.45 0.4
    endloop
  endfacet
  facet normal 0 -1 0
    outer loop
      vertex -22.6353 -44.45 0.4
      vertex -22.6353 -44.45 1.2
      vertex -57.15 -44.45 1.2
    endloop
  endfacet
  facet normal 0.992241 0.124328 0
    outer loop
      vertex -23.0366 -41.2473 0.4
      vertex -22.6353 -44.45 1.2
      vertex -22.6353 -44.45 0.4
    endloop
  endfacet
  facet normal 0.992241 0.124328 -0
    outer loop
      vertex -23.0366 -41.2473 0.4
      vertex -23.0366 -41.2473 1.2
      vertex -22.6353 -44.45 1.2
    endloop
  endfacet
  facet normal 0.423259 0.906009 0
    outer loop
      vertex 53.6183 -32.2214 0.4
      vertex 57.15 -33.8713 1.2
      vertex 57.15 -33.8713 0.4
    endloop
  endfacet
  facet normal 0.423259 0.906009 -0
    outer loop
      vertex 53.6183 -32.2214 0.4
      vertex 53.6183 -32.2214 1.2
      vertex 57.15 -33.8713 1.2
    endloop
  endfacet
  facet normal 0.221101 0.975251 0
    outer loop
      vertex 49.7654 -31.3479 0.4
      vertex 53.6183 -32.2214 1.2
      vertex 53.6183 -32.2214 0.4
    endloop
  endfacet
  facet normal 0.221101 0.975251 -0
    outer loop
      vertex 49.7654 -31.3479 0.4
      vertex 49.7654 -31.3479 1.2
      vertex 53.6183 -32.2214 1.2
    endloop
  endfacet
  facet normal 0.347133 0.937816 0
    outer loop
      vertex 45.8324 -29.8921 0.4
      vertex 49.7654 -31.3479 1.2
      vertex 49.7654 -31.3479 0.4
    endloop
  endfacet
  facet normal 0.347133 0.937816 -0
    outer loop
      vertex 45.8324 -29.8921 0.4
      vertex 45.8324 -29.8921 1.2
      vertex 49.7654 -31.3479 1.2
    endloop
  endfacet
  facet normal 0.0473623 0.998878 0
    outer loop
      vertex 41.7388 -29.698 0.4
      vertex 45.8324 -29.8921 1.2
      vertex 45.8324 -29.8921 0.4
    endloop
  endfacet
  facet normal 0.0473623 0.998878 -0
    outer loop
      vertex 41.7388 -29.698 0.4
      vertex 41.7388 -29.698 1.2
      vertex 45.8324 -29.8921 1.2
    endloop
  endfacet
  facet normal 0.264967 0.964257 0
    outer loop
      vertex 38.207 -28.7275 0.4
      vertex 41.7388 -29.698 1.2
      vertex 41.7388 -29.698 0.4
    endloop
  endfacet
  facet normal 0.264967 0.964257 -0
    outer loop
      vertex 38.207 -28.7275 0.4
      vertex 38.207 -28.7275 1.2
      vertex 41.7388 -29.698 1.2
    endloop
  endfacet
  facet normal -0.0447365 0.998999 0
    outer loop
      vertex 33.8726 -28.9216 0.4
      vertex 38.207 -28.7275 1.2
      vertex 38.207 -28.7275 0.4
    endloop
  endfacet
  facet normal -0.0447365 0.998999 0
    outer loop
      vertex 33.8726 -28.9216 0.4
      vertex 33.8726 -28.9216 1.2
      vertex 38.207 -28.7275 1.2
    endloop
  endfacet
  facet normal -0.393657 0.919257 0
    outer loop
      vertex 30.0198 -30.5715 0.4
      vertex 33.8726 -28.9216 1.2
      vertex 33.8726 -28.9216 0.4
    endloop
  endfacet
  facet normal -0.393657 0.919257 0
    outer loop
      vertex 30.0198 -30.5715 0.4
      vertex 30.0198 -30.5715 1.2
      vertex 33.8726 -28.9216 1.2
    endloop
  endfacet
  facet normal -0.648481 0.761231 0
    outer loop
      vertex 26.4881 -33.5801 0.4
      vertex 30.0198 -30.5715 1.2
      vertex 30.0198 -30.5715 0.4
    endloop
  endfacet
  facet normal -0.648481 0.761231 0
    outer loop
      vertex 26.4881 -33.5801 0.4
      vertex 26.4881 -33.5801 1.2
      vertex 30.0198 -30.5715 1.2
    endloop
  endfacet
  facet normal -0.846036 0.533126 0
    outer loop
      vertex 23.9195 -37.6563 0.4
      vertex 26.4881 -33.5801 1.2
      vertex 26.4881 -33.5801 0.4
    endloop
  endfacet
  facet normal -0.846036 0.533126 0
    outer loop
      vertex 23.9195 -37.6563 0.4
      vertex 23.9195 -37.6563 1.2
      vertex 26.4881 -33.5801 1.2
    endloop
  endfacet
  facet normal -0.86099 -0.508621 0
    outer loop
      vertex 25.8078 -40.8528 0.4
      vertex 23.9195 -37.6563 1.2
      vertex 23.9195 -37.6563 0.4
    endloop
  endfacet
  facet normal -0.86099 -0.508621 0
    outer loop
      vertex 25.8078 -40.8528 0.4
      vertex 25.8078 -40.8528 1.2
      vertex 23.9195 -37.6563 1.2
    endloop
  endfacet
  facet normal 0.115498 0.993308 0
    outer loop
      vertex 23.3576 -40.5679 0.4
      vertex 25.8078 -40.8528 1.2
      vertex 25.8078 -40.8528 0.4
    endloop
  endfacet
  facet normal 0.115498 0.993308 -0
    outer loop
      vertex 23.3576 -40.5679 0.4
      vertex 23.3576 -40.5679 1.2
      vertex 25.8078 -40.8528 1.2
    endloop
  endfacet
  facet normal 0.140829 0.990034 0
    outer loop
      vertex 19.264 -39.9856 0.4
      vertex 23.3576 -40.5679 1.2
      vertex 23.3576 -40.5679 0.4
    endloop
  endfacet
  facet normal 0.140829 0.990034 -0
    outer loop
      vertex 19.264 -39.9856 0.4
      vertex 19.264 -39.9856 1.2
      vertex 23.3576 -40.5679 1.2
    endloop
  endfacet
  facet normal -0.10025 0.994962 0
    outer loop
      vertex 15.4112 -40.3738 0.4
      vertex 19.264 -39.9856 1.2
      vertex 19.264 -39.9856 0.4
    endloop
  endfacet
  facet normal -0.10025 0.994962 0
    outer loop
      vertex 15.4112 -40.3738 0.4
      vertex 15.4112 -40.3738 1.2
      vertex 19.264 -39.9856 1.2
    endloop
  endfacet
  facet normal 0.154855 0.987937 0
    outer loop
      vertex 11.0768 -39.6944 0.4
      vertex 15.4112 -40.3738 1.2
      vertex 15.4112 -40.3738 0.4
    endloop
  endfacet
  facet normal 0.154855 0.987937 -0
    outer loop
      vertex 11.0768 -39.6944 0.4
      vertex 11.0768 -39.6944 1.2
      vertex 15.4112 -40.3738 1.2
    endloop
  endfacet
  facet normal 0.189934 0.981797 0
    outer loop
      vertex 7.06348 -38.918 0.4
      vertex 11.0768 -39.6944 1.2
      vertex 11.0768 -39.6944 0.4
    endloop
  endfacet
  facet normal 0.189934 0.981797 -0
    outer loop
      vertex 7.06348 -38.918 0.4
      vertex 7.06348 -38.918 1.2
      vertex 11.0768 -39.6944 1.2
    endloop
  endfacet
  facet normal 0.216784 0.97622 0
    outer loop
      vertex 3.1304 -38.0446 0.4
      vertex 7.06348 -38.918 1.2
      vertex 7.06348 -38.918 0.4
    endloop
  endfacet
  facet normal 0.216784 0.97622 -0
    outer loop
      vertex 3.1304 -38.0446 0.4
      vertex 3.1304 -38.0446 1.2
      vertex 7.06348 -38.918 1.2
    endloop
  endfacet
  facet normal -0.138173 0.990408 0
    outer loop
      vertex -1.04347 -38.6269 0.4
      vertex 3.1304 -38.0446 1.2
      vertex 3.1304 -38.0446 0.4
    endloop
  endfacet
  facet normal -0.138173 0.990408 0
    outer loop
      vertex -1.04347 -38.6269 0.4
      vertex -1.04347 -38.6269 1.2
      vertex 3.1304 -38.0446 1.2
    endloop
  endfacet
  facet normal 0.173659 0.984806 0
    outer loop
      vertex -4.89629 -37.9475 0.4
      vertex -1.04347 -38.6269 1.2
      vertex -1.04347 -38.6269 0.4
    endloop
  endfacet
  facet normal 0.173659 0.984806 -0
    outer loop
      vertex -4.89629 -37.9475 0.4
      vertex -4.89629 -37.9475 1.2
      vertex -1.04347 -38.6269 1.2
    endloop
  endfacet
  facet normal 0.0246806 0.999695 0
    outer loop
      vertex -8.82936 -37.8504 0.4
      vertex -4.89629 -37.9475 1.2
      vertex -4.89629 -37.9475 0.4
    endloop
  endfacet
  facet normal 0.0246806 0.999695 -0
    outer loop
      vertex -8.82936 -37.8504 0.4
      vertex -8.82936 -37.8504 1.2
      vertex -4.89629 -37.9475 1.2
    endloop
  endfacet
  facet normal -0.320689 0.947185 0
    outer loop
      vertex -12.8427 -39.2092 0.4
      vertex -8.82936 -37.8504 1.2
      vertex -8.82936 -37.8504 0.4
    endloop
  endfacet
  facet normal -0.320689 0.947185 0
    outer loop
      vertex -12.8427 -39.2092 0.4
      vertex -12.8427 -39.2092 1.2
      vertex -8.82936 -37.8504 1.2
    endloop
  endfacet
  facet normal -0.71963 0.694358 0
    outer loop
      vertex -16.2139 -42.7031 0.4
      vertex -12.8427 -39.2092 1.2
      vertex -12.8427 -39.2092 0.4
    endloop
  endfacet
  facet normal -0.71963 0.694358 0
    outer loop
      vertex -16.2139 -42.7031 0.4
      vertex -16.2139 -42.7031 1.2
      vertex -12.8427 -39.2092 1.2
    endloop
  endfacet
  facet normal -1 0 0
    outer loop
      vertex -16.2139 -44.45 0.4
      vertex -16.2139 -42.7031 1.2
      vertex -16.2139 -42.7031 0.4
    endloop
  endfacet
  facet normal -1 0 0
    outer loop
      vertex -16.2139 -44.45 0.4
      vertex -16.2139 -44.45 1.2
      vertex -16.2139 -42.7031 1.2
    endloop
  endfacet
  facet normal 0 -1 0
    outer loop
      vertex 57.15 -44.45 0.4
      vertex -16.2139 -44.45 1.2
      vertex -16.2139 -44.45 0.4
    endloop
  endfacet
  facet normal 0 -1 0
    outer loop
      vertex 57.15 -44.45 0.4
      vertex 57.15 -44.45 1.2
      vertex -16.2139 -44.45 1.2
    endloop
  endfacet
  facet normal 1 0 0
    outer loop
      vertex 57.15 -33.8713 0.4
      vertex 57.15 -44.45 1.2
      vertex 57.15 -44.45 0.4
    endloop
  endfacet
  facet normal 1 0 -0
    outer loop
      vertex 57.15 -33.8713 0.4
      vertex 57.15 -33.8713 1.2
      vertex 57.15 -44.45 1.2
    endloop
  endfacet
endsolid OpenSCAD_Model
