solid OpenSCAD_Model
  facet normal -0 -0 -1
    outer loop
      vertex -6.26082 15.2372 0.4
      vertex -4.09362 10.4817 0.4
      vertex -8.50829 15.2372 0.4
    endloop
  endfacet
  facet normal 0 -0 -1
    outer loop
      vertex -25.8459 11.9374 0.4
      vertex -23.1971 8.7347 0.4
      vertex -28.2539 9.12292 0.4
    endloop
  endfacet
  facet normal 0 -0 -1
    outer loop
      vertex -23.1971 8.7347 0.4
      vertex -23.1971 4.65851 0.4
      vertex -28.2539 4.85261 0.4
    endloop
  endfacet
  facet normal -0 0 -1
    outer loop
      vertex -23.1971 8.7347 0.4
      vertex -28.2539 4.85261 0.4
      vertex -28.2539 9.12292 0.4
    endloop
  endfacet
  facet normal 0 0 -1
    outer loop
      vertex -8.50829 15.2372 0.4
      vertex -4.09362 10.4817 0.4
      vertex -4.09362 9.80229 0.4
    endloop
  endfacet
  facet normal 0 0 -1
    outer loop
      vertex -14.6086 6.40545 0.4
      vertex -14.6086 14.5578 0.4
      vertex -8.50829 15.2372 0.4
    endloop
  endfacet
  facet normal 0 0 -1
    outer loop
      vertex -20.9497 7.57008 0.4
      vertex -17.0166 6.40545 0.4
      vertex -20.9497 4.85261 0.4
    endloop
  endfacet
  facet normal -0 0 -1
    outer loop
      vertex -8.50829 15.2372 0.4
      vertex -14.6086 14.5578 0.4
      vertex -10.0505 17.2056 0.4
    endloop
  endfacet
  facet normal -0 0 -1
    outer loop
      vertex -9.39122 21.3515 0.4
      vertex -10.7558 18.1057 0.4
      vertex -10.7558 21.3515 0.4
    endloop
  endfacet
  facet normal 0 -0 -1
    outer loop
      vertex -0.481608 29.4069 0.4
      vertex -0.12041 27.5629 0.4
      vertex -0.682276 27.5629 0.4
    endloop
  endfacet
  facet normal 0 -0 -1
    outer loop
      vertex -9.39122 21.3515 0.4
      vertex -9.39122 16.596 0.4
      vertex -10.0505 17.2056 0.4
    endloop
  endfacet
  facet normal 0 0 -1
    outer loop
      vertex -10.0505 17.2056 0.4
      vertex -10.7558 18.1057 0.4
      vertex -9.39122 21.3515 0.4
    endloop
  endfacet
  facet normal -0 0 -1
    outer loop
      vertex -10.0505 17.2056 0.4
      vertex -14.6086 14.5578 0.4
      vertex -10.7558 18.1057 0.4
    endloop
  endfacet
  facet normal 0 0 -1
    outer loop
      vertex -14.6086 14.5578 0.4
      vertex -11.3979 18.9252 0.4
      vertex -10.7558 18.1057 0.4
    endloop
  endfacet
  facet normal 0 0 -1
    outer loop
      vertex -14.6086 6.40545 0.4
      vertex -8.50829 15.2372 0.4
      vertex -4.09362 9.80229 0.4
    endloop
  endfacet
  facet normal 0 0 -1
    outer loop
      vertex -4.09362 6.21135 0.4
      vertex -14.6086 6.40545 0.4
      vertex -4.09362 9.80229 0.4
    endloop
  endfacet
  facet normal 0 0 -1
    outer loop
      vertex -1.60534 6.21135 0.4
      vertex -4.09362 9.80229 0.4
      vertex -1.60534 9.80229 0.4
    endloop
  endfacet
  facet normal 0 0 -1
    outer loop
      vertex -4.09362 6.21135 0.4
      vertex -4.09362 9.80229 0.4
      vertex -1.60534 6.21135 0.4
    endloop
  endfacet
  facet normal 0 -0 -1
    outer loop
      vertex -18.8627 9.02586 0.4
      vertex -17.0166 6.40545 0.4
      vertex -20.9497 7.57008 0.4
    endloop
  endfacet
  facet normal 0 -0 -1
    outer loop
      vertex -17.0166 6.40545 0.4
      vertex -17.0166 4.56145 0.4
      vertex -20.9497 4.85261 0.4
    endloop
  endfacet
  facet normal 0 0 -1
    outer loop
      vertex -0.802671 27.5629 0.4
      vertex -0.802671 29.4069 0.4
      vertex -0.682276 27.5629 0.4
    endloop
  endfacet
  facet normal 0 0 -1
    outer loop
      vertex -0.481608 29.4069 0.4
      vertex 1.28426 31.6391 0.4
      vertex 3.05014 29.4069 0.4
    endloop
  endfacet
  facet normal 0 0 -1
    outer loop
      vertex 3.25081 27.5629 0.4
      vertex 3.05014 29.4069 0.4
      vertex 3.3712 29.4069 0.4
    endloop
  endfacet
  facet normal 0 -0 -1
    outer loop
      vertex 3.3712 29.4069 0.4
      vertex 3.3712 27.5629 0.4
      vertex 3.25081 27.5629 0.4
    endloop
  endfacet
  facet normal 0 0 -1
    outer loop
      vertex -0.802671 29.4069 0.4
      vertex -0.481608 29.4069 0.4
      vertex -0.682276 27.5629 0.4
    endloop
  endfacet
  facet normal 0 -0 -1
    outer loop
      vertex -0.12041 27.5629 0.4
      vertex -0.12041 26.3012 0.4
      vertex -0.160534 26.3012 0.4
    endloop
  endfacet
  facet normal 0 0 -1
    outer loop
      vertex -0.481608 29.4069 0.4
      vertex 2.68893 27.5629 0.4
      vertex -0.12041 27.5629 0.4
    endloop
  endfacet
  facet normal 0 0 -1
    outer loop
      vertex -0.682276 26.3012 0.4
      vertex -0.682276 27.5629 0.4
      vertex -0.160534 26.3012 0.4
    endloop
  endfacet
  facet normal -0 0 -1
    outer loop
      vertex 3.05014 29.4069 0.4
      vertex 2.68893 27.5629 0.4
      vertex -0.481608 29.4069 0.4
    endloop
  endfacet
  facet normal 0 0 -1
    outer loop
      vertex -0.561868 6.79366 0.4
      vertex -0.160534 26.3012 0.4
      vertex -0.12041 26.3012 0.4
    endloop
  endfacet
  facet normal 0 0 -1
    outer loop
      vertex -0.561868 6.79366 0.4
      vertex -0.12041 26.3012 0.4
      vertex 2.68893 26.3012 0.4
    endloop
  endfacet
  facet normal 0 0 -1
    outer loop
      vertex 2.72907 26.3012 0.4
      vertex 3.25081 27.5629 0.4
      vertex 3.25081 26.3012 0.4
    endloop
  endfacet
  facet normal 0 0 -1
    outer loop
      vertex -0.561868 6.79366 0.4
      vertex 2.68893 26.3012 0.4
      vertex 3.1304 6.79366 0.4
    endloop
  endfacet
  facet normal 0 -0 -1
    outer loop
      vertex 3.05014 29.4069 0.4
      vertex 3.25081 27.5629 0.4
      vertex 2.68893 27.5629 0.4
    endloop
  endfacet
  facet normal 0 0 -1
    outer loop
      vertex -0.682276 27.5629 0.4
      vertex -0.12041 27.5629 0.4
      vertex -0.160534 26.3012 0.4
    endloop
  endfacet
  facet normal 0 0 -1
    outer loop
      vertex 2.68893 27.5629 0.4
      vertex 3.25081 27.5629 0.4
      vertex 2.72907 26.3012 0.4
    endloop
  endfacet
  facet normal 0 0 -1
    outer loop
      vertex 3.1304 6.79366 0.4
      vertex 2.68893 26.3012 0.4
      vertex 2.72907 26.3012 0.4
    endloop
  endfacet
  facet normal 0 0 -1
    outer loop
      vertex 2.68893 26.3012 0.4
      vertex 2.68893 27.5629 0.4
      vertex 2.72907 26.3012 0.4
    endloop
  endfacet
  facet normal -0 0 1
    outer loop
      vertex -8.50829 15.2372 1.6
      vertex -4.09362 10.4817 1.6
      vertex -6.26082 15.2372 1.6
    endloop
  endfacet
  facet normal -0 0 1
    outer loop
      vertex -28.2539 9.12292 1.6
      vertex -23.1971 8.7347 1.6
      vertex -25.8459 11.9374 1.6
    endloop
  endfacet
  facet normal -0 0 1
    outer loop
      vertex -28.2539 4.85261 1.6
      vertex -23.1971 4.65851 1.6
      vertex -23.1971 8.7347 1.6
    endloop
  endfacet
  facet normal 0 0 1
    outer loop
      vertex -28.2539 9.12292 1.6
      vertex -28.2539 4.85261 1.6
      vertex -23.1971 8.7347 1.6
    endloop
  endfacet
  facet normal 0 -0 1
    outer loop
      vertex -4.09362 9.80229 1.6
      vertex -4.09362 10.4817 1.6
      vertex -8.50829 15.2372 1.6
    endloop
  endfacet
  facet normal 0 0 1
    outer loop
      vertex -8.50829 15.2372 1.6
      vertex -14.6086 14.5578 1.6
      vertex -14.6086 6.40545 1.6
    endloop
  endfacet
  facet normal 0 0 1
    outer loop
      vertex -20.9497 4.85261 1.6
      vertex -17.0166 6.40545 1.6
      vertex -20.9497 7.57008 1.6
    endloop
  endfacet
  facet normal 0 0 1
    outer loop
      vertex -10.0505 17.2056 1.6
      vertex -14.6086 14.5578 1.6
      vertex -8.50829 15.2372 1.6
    endloop
  endfacet
  facet normal -0 0 1
    outer loop
      vertex -10.7558 21.3515 1.6
      vertex -10.7558 18.1057 1.6
      vertex -9.39122 21.3515 1.6
    endloop
  endfacet
  facet normal 0 0 1
    outer loop
      vertex -0.682276 27.5629 1.6
      vertex -0.12041 27.5629 1.6
      vertex -0.481608 29.4069 1.6
    endloop
  endfacet
  facet normal -0 0 1
    outer loop
      vertex -10.0505 17.2056 1.6
      vertex -9.39122 16.596 1.6
      vertex -9.39122 21.3515 1.6
    endloop
  endfacet
  facet normal 0 0 1
    outer loop
      vertex -9.39122 21.3515 1.6
      vertex -10.7558 18.1057 1.6
      vertex -10.0505 17.2056 1.6
    endloop
  endfacet
  facet normal 0 0 1
    outer loop
      vertex -10.7558 18.1057 1.6
      vertex -14.6086 14.5578 1.6
      vertex -10.0505 17.2056 1.6
    endloop
  endfacet
  facet normal 0 0 1
    outer loop
      vertex -10.7558 18.1057 1.6
      vertex -11.3979 18.9252 1.6
      vertex -14.6086 14.5578 1.6
    endloop
  endfacet
  facet normal 0 0 1
    outer loop
      vertex -4.09362 9.80229 1.6
      vertex -8.50829 15.2372 1.6
      vertex -14.6086 6.40545 1.6
    endloop
  endfacet
  facet normal 0 0 1
    outer loop
      vertex -4.09362 9.80229 1.6
      vertex -14.6086 6.40545 1.6
      vertex -4.09362 6.21135 1.6
    endloop
  endfacet
  facet normal 0 0 1
    outer loop
      vertex -1.60534 9.80229 1.6
      vertex -4.09362 9.80229 1.6
      vertex -1.60534 6.21135 1.6
    endloop
  endfacet
  facet normal 0 0 1
    outer loop
      vertex -1.60534 6.21135 1.6
      vertex -4.09362 9.80229 1.6
      vertex -4.09362 6.21135 1.6
    endloop
  endfacet
  facet normal -0 0 1
    outer loop
      vertex -20.9497 7.57008 1.6
      vertex -17.0166 6.40545 1.6
      vertex -18.8627 9.02586 1.6
    endloop
  endfacet
  facet normal -0 0 1
    outer loop
      vertex -20.9497 4.85261 1.6
      vertex -17.0166 4.56145 1.6
      vertex -17.0166 6.40545 1.6
    endloop
  endfacet
  facet normal 0 0 1
    outer loop
      vertex -0.682276 27.5629 1.6
      vertex -0.802671 29.4069 1.6
      vertex -0.802671 27.5629 1.6
    endloop
  endfacet
  facet normal 0 0 1
    outer loop
      vertex 3.05014 29.4069 1.6
      vertex 1.28426 31.6391 1.6
      vertex -0.481608 29.4069 1.6
    endloop
  endfacet
  facet normal 0 0 1
    outer loop
      vertex 3.3712 29.4069 1.6
      vertex 3.05014 29.4069 1.6
      vertex 3.25081 27.5629 1.6
    endloop
  endfacet
  facet normal 0 0 1
    outer loop
      vertex 3.25081 27.5629 1.6
      vertex 3.3712 27.5629 1.6
      vertex 3.3712 29.4069 1.6
    endloop
  endfacet
  facet normal 0 -0 1
    outer loop
      vertex -0.682276 27.5629 1.6
      vertex -0.481608 29.4069 1.6
      vertex -0.802671 29.4069 1.6
    endloop
  endfacet
  facet normal 0 0 1
    outer loop
      vertex -0.160534 26.3012 1.6
      vertex -0.12041 26.3012 1.6
      vertex -0.12041 27.5629 1.6
    endloop
  endfacet
  facet normal 0 -0 1
    outer loop
      vertex -0.12041 27.5629 1.6
      vertex 2.68893 27.5629 1.6
      vertex -0.481608 29.4069 1.6
    endloop
  endfacet
  facet normal 0 0 1
    outer loop
      vertex -0.160534 26.3012 1.6
      vertex -0.682276 27.5629 1.6
      vertex -0.682276 26.3012 1.6
    endloop
  endfacet
  facet normal -0 0 1
    outer loop
      vertex -0.481608 29.4069 1.6
      vertex 2.68893 27.5629 1.6
      vertex 3.05014 29.4069 1.6
    endloop
  endfacet
  facet normal 0 0 1
    outer loop
      vertex -0.12041 26.3012 1.6
      vertex -0.160534 26.3012 1.6
      vertex -0.561868 6.79366 1.6
    endloop
  endfacet
  facet normal 0 0 1
    outer loop
      vertex 2.68893 26.3012 1.6
      vertex -0.12041 26.3012 1.6
      vertex -0.561868 6.79366 1.6
    endloop
  endfacet
  facet normal 0 -0 1
    outer loop
      vertex 3.25081 26.3012 1.6
      vertex 3.25081 27.5629 1.6
      vertex 2.72907 26.3012 1.6
    endloop
  endfacet
  facet normal 0 0 1
    outer loop
      vertex 3.1304 6.79366 1.6
      vertex 2.68893 26.3012 1.6
      vertex -0.561868 6.79366 1.6
    endloop
  endfacet
  facet normal 0 0 1
    outer loop
      vertex 2.68893 27.5629 1.6
      vertex 3.25081 27.5629 1.6
      vertex 3.05014 29.4069 1.6
    endloop
  endfacet
  facet normal 0 -0 1
    outer loop
      vertex -0.160534 26.3012 1.6
      vertex -0.12041 27.5629 1.6
      vertex -0.682276 27.5629 1.6
    endloop
  endfacet
  facet normal 0 -0 1
    outer loop
      vertex 2.72907 26.3012 1.6
      vertex 3.25081 27.5629 1.6
      vertex 2.68893 27.5629 1.6
    endloop
  endfacet
  facet normal 0 0 1
    outer loop
      vertex 2.72907 26.3012 1.6
      vertex 2.68893 26.3012 1.6
      vertex 3.1304 6.79366 1.6
    endloop
  endfacet
  facet normal 0 0 1
    outer loop
      vertex 2.72907 26.3012 1.6
      vertex 2.68893 27.5629 1.6
      vertex 2.68893 26.3012 1.6
    endloop
  endfacet
  facet normal 0.770596 0.637323 0
    outer loop
      vertex -25.8459 11.9374 0.4
      vertex -23.1971 8.7347 1.6
      vertex -23.1971 8.7347 0.4
    endloop
  endfacet
  facet normal 0.770596 0.637323 -0
    outer loop
      vertex -25.8459 11.9374 0.4
      vertex -25.8459 11.9374 1.6
      vertex -23.1971 8.7347 1.6
    endloop
  endfacet
  facet normal -0.759845 0.650105 0
    outer loop
      vertex -28.2539 9.12292 0.4
      vertex -25.8459 11.9374 1.6
      vertex -25.8459 11.9374 0.4
    endloop
  endfacet
  facet normal -0.759845 0.650105 0
    outer loop
      vertex -28.2539 9.12292 0.4
      vertex -28.2539 9.12292 1.6
      vertex -25.8459 11.9374 1.6
    endloop
  endfacet
  facet normal -1 0 0
    outer loop
      vertex -28.2539 4.85261 0.4
      vertex -28.2539 9.12292 1.6
      vertex -28.2539 9.12292 0.4
    endloop
  endfacet
  facet normal -1 0 0
    outer loop
      vertex -28.2539 4.85261 0.4
      vertex -28.2539 4.85261 1.6
      vertex -28.2539 9.12292 1.6
    endloop
  endfacet
  facet normal -0.0383557 -0.999264 0
    outer loop
      vertex -23.1971 4.65851 0.4
      vertex -28.2539 4.85261 1.6
      vertex -28.2539 4.85261 0.4
    endloop
  endfacet
  facet normal -0.0383557 -0.999264 0
    outer loop
      vertex -23.1971 4.65851 0.4
      vertex -23.1971 4.65851 1.6
      vertex -28.2539 4.85261 1.6
    endloop
  endfacet
  facet normal 1 0 0
    outer loop
      vertex -23.1971 8.7347 0.4
      vertex -23.1971 4.65851 1.6
      vertex -23.1971 4.65851 0.4
    endloop
  endfacet
  facet normal 1 0 -0
    outer loop
      vertex -23.1971 8.7347 0.4
      vertex -23.1971 8.7347 1.6
      vertex -23.1971 4.65851 1.6
    endloop
  endfacet
  facet normal 0 1 0
    outer loop
      vertex -8.50829 15.2372 0.4
      vertex -6.26082 15.2372 1.6
      vertex -6.26082 15.2372 0.4
    endloop
  endfacet
  facet normal 0 1 0
    outer loop
      vertex -8.50829 15.2372 0.4
      vertex -8.50829 15.2372 1.6
      vertex -6.26082 15.2372 1.6
    endloop
  endfacet
  facet normal 0.78717 0.616735 0
    outer loop
      vertex -10.0505 17.2056 0.4
      vertex -8.50829 15.2372 1.6
      vertex -8.50829 15.2372 0.4
    endloop
  endfacet
  facet normal 0.78717 0.616735 -0
    outer loop
      vertex -10.0505 17.2056 0.4
      vertex -10.0505 17.2056 1.6
      vertex -8.50829 15.2372 1.6
    endloop
  endfacet
  facet normal -0.678902 -0.734229 0
    outer loop
      vertex -9.39122 16.596 0.4
      vertex -10.0505 17.2056 1.6
      vertex -10.0505 17.2056 0.4
    endloop
  endfacet
  facet normal -0.678902 -0.734229 0
    outer loop
      vertex -9.39122 16.596 0.4
      vertex -9.39122 16.596 1.6
      vertex -10.0505 17.2056 1.6
    endloop
  endfacet
  facet normal 1 0 0
    outer loop
      vertex -9.39122 21.3515 0.4
      vertex -9.39122 16.596 1.6
      vertex -9.39122 16.596 0.4
    endloop
  endfacet
  facet normal 1 0 -0
    outer loop
      vertex -9.39122 21.3515 0.4
      vertex -9.39122 21.3515 1.6
      vertex -9.39122 16.596 1.6
    endloop
  endfacet
  facet normal 0 1 0
    outer loop
      vertex -10.7558 21.3515 0.4
      vertex -9.39122 21.3515 1.6
      vertex -9.39122 21.3515 0.4
    endloop
  endfacet
  facet normal 0 1 0
    outer loop
      vertex -10.7558 21.3515 0.4
      vertex -10.7558 21.3515 1.6
      vertex -9.39122 21.3515 1.6
    endloop
  endfacet
  facet normal -1 0 0
    outer loop
      vertex -10.7558 18.1057 0.4
      vertex -10.7558 21.3515 1.6
      vertex -10.7558 21.3515 0.4
    endloop
  endfacet
  facet normal -1 0 0
    outer loop
      vertex -10.7558 18.1057 0.4
      vertex -10.7558 18.1057 1.6
      vertex -10.7558 21.3515 1.6
    endloop
  endfacet
  facet normal 0.787154 0.616756 0
    outer loop
      vertex -11.3979 18.9252 0.4
      vertex -10.7558 18.1057 1.6
      vertex -10.7558 18.1057 0.4
    endloop
  endfacet
  facet normal 0.787154 0.616756 -0
    outer loop
      vertex -11.3979 18.9252 0.4
      vertex -11.3979 18.9252 1.6
      vertex -10.7558 18.1057 1.6
    endloop
  endfacet
  facet normal -0.805706 0.592316 0
    outer loop
      vertex -14.6086 14.5578 0.4
      vertex -11.3979 18.9252 1.6
      vertex -11.3979 18.9252 0.4
    endloop
  endfacet
  facet normal -0.805706 0.592316 0
    outer loop
      vertex -14.6086 14.5578 0.4
      vertex -14.6086 14.5578 1.6
      vertex -11.3979 18.9252 1.6
    endloop
  endfacet
  facet normal -1 0 0
    outer loop
      vertex -14.6086 6.40545 0.4
      vertex -14.6086 14.5578 1.6
      vertex -14.6086 14.5578 0.4
    endloop
  endfacet
  facet normal -1 0 0
    outer loop
      vertex -14.6086 6.40545 0.4
      vertex -14.6086 6.40545 1.6
      vertex -14.6086 14.5578 1.6
    endloop
  endfacet
  facet normal -0.0184562 -0.99983 0
    outer loop
      vertex -4.09362 6.21135 0.4
      vertex -14.6086 6.40545 1.6
      vertex -14.6086 6.40545 0.4
    endloop
  endfacet
  facet normal -0.0184562 -0.99983 0
    outer loop
      vertex -4.09362 6.21135 0.4
      vertex -4.09362 6.21135 1.6
      vertex -14.6086 6.40545 1.6
    endloop
  endfacet
  facet normal 0 -1 0
    outer loop
      vertex -1.60534 6.21135 0.4
      vertex -4.09362 6.21135 1.6
      vertex -4.09362 6.21135 0.4
    endloop
  endfacet
  facet normal 0 -1 0
    outer loop
      vertex -1.60534 6.21135 0.4
      vertex -1.60534 6.21135 1.6
      vertex -4.09362 6.21135 1.6
    endloop
  endfacet
  facet normal 1 0 0
    outer loop
      vertex -1.60534 9.80229 0.4
      vertex -1.60534 6.21135 1.6
      vertex -1.60534 6.21135 0.4
    endloop
  endfacet
  facet normal 1 0 -0
    outer loop
      vertex -1.60534 9.80229 0.4
      vertex -1.60534 9.80229 1.6
      vertex -1.60534 6.21135 1.6
    endloop
  endfacet
  facet normal 0 1 0
    outer loop
      vertex -4.09362 9.80229 0.4
      vertex -1.60534 9.80229 1.6
      vertex -1.60534 9.80229 0.4
    endloop
  endfacet
  facet normal 0 1 0
    outer loop
      vertex -4.09362 9.80229 0.4
      vertex -4.09362 9.80229 1.6
      vertex -1.60534 9.80229 1.6
    endloop
  endfacet
  facet normal 1 0 0
    outer loop
      vertex -4.09362 10.4817 0.4
      vertex -4.09362 9.80229 1.6
      vertex -4.09362 9.80229 0.4
    endloop
  endfacet
  facet normal 1 0 -0
    outer loop
      vertex -4.09362 10.4817 0.4
      vertex -4.09362 10.4817 1.6
      vertex -4.09362 9.80229 1.6
    endloop
  endfacet
  facet normal 0.909962 0.414692 0
    outer loop
      vertex -6.26082 15.2372 0.4
      vertex -4.09362 10.4817 1.6
      vertex -4.09362 10.4817 0.4
    endloop
  endfacet
  facet normal 0.909962 0.414692 -0
    outer loop
      vertex -6.26082 15.2372 0.4
      vertex -6.26082 15.2372 1.6
      vertex -4.09362 10.4817 1.6
    endloop
  endfacet
  facet normal 0.817497 0.575933 0
    outer loop
      vertex -18.8627 9.02586 0.4
      vertex -17.0166 6.40545 1.6
      vertex -17.0166 6.40545 0.4
    endloop
  endfacet
  facet normal 0.817497 0.575933 -0
    outer loop
      vertex -18.8627 9.02586 0.4
      vertex -18.8627 9.02586 1.6
      vertex -17.0166 6.40545 1.6
    endloop
  endfacet
  facet normal -0.572111 0.820176 0
    outer loop
      vertex -20.9497 7.57008 0.4
      vertex -18.8627 9.02586 1.6
      vertex -18.8627 9.02586 0.4
    endloop
  endfacet
  facet normal -0.572111 0.820176 0
    outer loop
      vertex -20.9497 7.57008 0.4
      vertex -20.9497 7.57008 1.6
      vertex -18.8627 9.02586 1.6
    endloop
  endfacet
  facet normal -1 0 0
    outer loop
      vertex -20.9497 4.85261 0.4
      vertex -20.9497 7.57008 1.6
      vertex -20.9497 7.57008 0.4
    endloop
  endfacet
  facet normal -1 0 0
    outer loop
      vertex -20.9497 4.85261 0.4
      vertex -20.9497 4.85261 1.6
      vertex -20.9497 7.57008 1.6
    endloop
  endfacet
  facet normal -0.0738261 -0.997271 0
    outer loop
      vertex -17.0166 4.56145 0.4
      vertex -20.9497 4.85261 1.6
      vertex -20.9497 4.85261 0.4
    endloop
  endfacet
  facet normal -0.0738261 -0.997271 0
    outer loop
      vertex -17.0166 4.56145 0.4
      vertex -17.0166 4.56145 1.6
      vertex -20.9497 4.85261 1.6
    endloop
  endfacet
  facet normal 1 0 0
    outer loop
      vertex -17.0166 6.40545 0.4
      vertex -17.0166 4.56145 1.6
      vertex -17.0166 4.56145 0.4
    endloop
  endfacet
  facet normal 1 0 -0
    outer loop
      vertex -17.0166 6.40545 0.4
      vertex -17.0166 6.40545 1.6
      vertex -17.0166 4.56145 1.6
    endloop
  endfacet
  facet normal 0 -1 0
    outer loop
      vertex 3.3712 27.5629 0.4
      vertex 3.25081 27.5629 1.6
      vertex 3.25081 27.5629 0.4
    endloop
  endfacet
  facet normal 0 -1 0
    outer loop
      vertex 3.3712 27.5629 0.4
      vertex 3.3712 27.5629 1.6
      vertex 3.25081 27.5629 1.6
    endloop
  endfacet
  facet normal 1 0 0
    outer loop
      vertex 3.3712 29.4069 0.4
      vertex 3.3712 27.5629 1.6
      vertex 3.3712 27.5629 0.4
    endloop
  endfacet
  facet normal 1 0 -0
    outer loop
      vertex 3.3712 29.4069 0.4
      vertex 3.3712 29.4069 1.6
      vertex 3.3712 27.5629 1.6
    endloop
  endfacet
  facet normal 0 1 0
    outer loop
      vertex 3.05014 29.4069 0.4
      vertex 3.3712 29.4069 1.6
      vertex 3.3712 29.4069 0.4
    endloop
  endfacet
  facet normal 0 1 0
    outer loop
      vertex 3.05014 29.4069 0.4
      vertex 3.05014 29.4069 1.6
      vertex 3.3712 29.4069 1.6
    endloop
  endfacet
  facet normal 0.784264 0.620427 0
    outer loop
      vertex 1.28426 31.6391 0.4
      vertex 3.05014 29.4069 1.6
      vertex 3.05014 29.4069 0.4
    endloop
  endfacet
  facet normal 0.784264 0.620427 -0
    outer loop
      vertex 1.28426 31.6391 0.4
      vertex 1.28426 31.6391 1.6
      vertex 3.05014 29.4069 1.6
    endloop
  endfacet
  facet normal -0.784266 0.620424 0
    outer loop
      vertex -0.481608 29.4069 0.4
      vertex 1.28426 31.6391 1.6
      vertex 1.28426 31.6391 0.4
    endloop
  endfacet
  facet normal -0.784266 0.620424 0
    outer loop
      vertex -0.481608 29.4069 0.4
      vertex -0.481608 29.4069 1.6
      vertex 1.28426 31.6391 1.6
    endloop
  endfacet
  facet normal 0 1 0
    outer loop
      vertex -0.802671 29.4069 0.4
      vertex -0.481608 29.4069 1.6
      vertex -0.481608 29.4069 0.4
    endloop
  endfacet
  facet normal 0 1 0
    outer loop
      vertex -0.802671 29.4069 0.4
      vertex -0.802671 29.4069 1.6
      vertex -0.481608 29.4069 1.6
    endloop
  endfacet
  facet normal -1 0 0
    outer loop
      vertex -0.802671 27.5629 0.4
      vertex -0.802671 29.4069 1.6
      vertex -0.802671 29.4069 0.4
    endloop
  endfacet
  facet normal -1 0 0
    outer loop
      vertex -0.802671 27.5629 0.4
      vertex -0.802671 27.5629 1.6
      vertex -0.802671 29.4069 1.6
    endloop
  endfacet
  facet normal 0 -1 0
    outer loop
      vertex -0.682276 27.5629 0.4
      vertex -0.802671 27.5629 1.6
      vertex -0.802671 27.5629 0.4
    endloop
  endfacet
  facet normal 0 -1 0
    outer loop
      vertex -0.682276 27.5629 0.4
      vertex -0.682276 27.5629 1.6
      vertex -0.802671 27.5629 1.6
    endloop
  endfacet
  facet normal -1 0 0
    outer loop
      vertex -0.682276 26.3012 0.4
      vertex -0.682276 27.5629 1.6
      vertex -0.682276 27.5629 0.4
    endloop
  endfacet
  facet normal -1 0 0
    outer loop
      vertex -0.682276 26.3012 0.4
      vertex -0.682276 26.3012 1.6
      vertex -0.682276 27.5629 1.6
    endloop
  endfacet
  facet normal 0 -1 0
    outer loop
      vertex -0.160534 26.3012 0.4
      vertex -0.682276 26.3012 1.6
      vertex -0.682276 26.3012 0.4
    endloop
  endfacet
  facet normal 0 -1 0
    outer loop
      vertex -0.160534 26.3012 0.4
      vertex -0.160534 26.3012 1.6
      vertex -0.682276 26.3012 1.6
    endloop
  endfacet
  facet normal -0.999788 0.0205689 0
    outer loop
      vertex -0.561868 6.79366 0.4
      vertex -0.160534 26.3012 1.6
      vertex -0.160534 26.3012 0.4
    endloop
  endfacet
  facet normal -0.999788 0.0205689 0
    outer loop
      vertex -0.561868 6.79366 0.4
      vertex -0.561868 6.79366 1.6
      vertex -0.160534 26.3012 1.6
    endloop
  endfacet
  facet normal 0 -1 0
    outer loop
      vertex 3.1304 6.79366 0.4
      vertex -0.561868 6.79366 1.6
      vertex -0.561868 6.79366 0.4
    endloop
  endfacet
  facet normal 0 -1 0
    outer loop
      vertex 3.1304 6.79366 0.4
      vertex 3.1304 6.79366 1.6
      vertex -0.561868 6.79366 1.6
    endloop
  endfacet
  facet normal 0.999788 0.0205687 0
    outer loop
      vertex 2.72907 26.3012 0.4
      vertex 3.1304 6.79366 1.6
      vertex 3.1304 6.79366 0.4
    endloop
  endfacet
  facet normal 0.999788 0.0205687 -0
    outer loop
      vertex 2.72907 26.3012 0.4
      vertex 2.72907 26.3012 1.6
      vertex 3.1304 6.79366 1.6
    endloop
  endfacet
  facet normal 0 -1 0
    outer loop
      vertex 3.25081 26.3012 0.4
      vertex 2.72907 26.3012 1.6
      vertex 2.72907 26.3012 0.4
    endloop
  endfacet
  facet normal 0 -1 0
    outer loop
      vertex 3.25081 26.3012 0.4
      vertex 3.25081 26.3012 1.6
      vertex 2.72907 26.3012 1.6
    endloop
  endfacet
  facet normal 1 0 0
    outer loop
      vertex 3.25081 27.5629 0.4
      vertex 3.25081 26.3012 1.6
      vertex 3.25081 26.3012 0.4
    endloop
  endfacet
  facet normal 1 0 -0
    outer loop
      vertex 3.25081 27.5629 0.4
      vertex 3.25081 27.5629 1.6
      vertex 3.25081 26.3012 1.6
    endloop
  endfacet
  facet normal 0 -1 0
    outer loop
      vertex 2.68893 27.5629 0.4
      vertex 2.68893 27.5629 1.6
      vertex -0.12041 27.5629 0.4
    endloop
  endfacet
  facet normal 0 -1 0
    outer loop
      vertex -0.12041 27.5629 1.6
      vertex -0.12041 27.5629 0.4
      vertex 2.68893 27.5629 1.6
    endloop
  endfacet
  facet normal -1 0 0
    outer loop
      vertex 2.68893 26.3012 0.4
      vertex 2.68893 26.3012 1.6
      vertex 2.68893 27.5629 0.4
    endloop
  endfacet
  facet normal -1 -0 -0
    outer loop
      vertex 2.68893 27.5629 1.6
      vertex 2.68893 27.5629 0.4
      vertex 2.68893 26.3012 1.6
    endloop
  endfacet
  facet normal 0 1 0
    outer loop
      vertex -0.12041 26.3012 0.4
      vertex -0.12041 26.3012 1.6
      vertex 2.68893 26.3012 0.4
    endloop
  endfacet
  facet normal 0 1 0
    outer loop
      vertex 2.68893 26.3012 1.6
      vertex 2.68893 26.3012 0.4
      vertex -0.12041 26.3012 1.6
    endloop
  endfacet
  facet normal 1 0 -0
    outer loop
      vertex -0.12041 27.5629 0.4
      vertex -0.12041 27.5629 1.6
      vertex -0.12041 26.3012 0.4
    endloop
  endfacet
  facet normal 1 -0 0
    outer loop
      vertex -0.12041 26.3012 1.6
      vertex -0.12041 26.3012 0.4
      vertex -0.12041 27.5629 1.6
    endloop
  endfacet
endsolid OpenSCAD_Model
