solid OpenSCAD_Model
  facet normal 0 0 -1
    outer loop
      vertex -76.2 50.8 0
      vertex 69.85 44.45 0
      vertex -69.85 44.45 0
    endloop
  endfacet
  facet normal 0 -0 -1
    outer loop
      vertex 69.85 -44.45 0
      vertex 76.2 -50.8 0
      vertex -76.2 -50.8 0
    endloop
  endfacet
  facet normal 0 0 -1
    outer loop
      vertex 76.2 -50.8 0
      vertex 69.85 -44.45 0
      vertex 69.85 44.45 0
    endloop
  endfacet
  facet normal 0 0 -1
    outer loop
      vertex 69.85 44.45 0
      vertex 76.2 50.8 0
      vertex 76.2 -50.8 0
    endloop
  endfacet
  facet normal 0 0 -1
    outer loop
      vertex -76.2 50.8 0
      vertex -69.85 -44.45 0
      vertex -76.2 -50.8 0
    endloop
  endfacet
  facet normal 0 -0 -1
    outer loop
      vertex -69.85 -44.45 0
      vertex 69.85 -44.45 0
      vertex -76.2 -50.8 0
    endloop
  endfacet
  facet normal 0 0 -1
    outer loop
      vertex -76.2 50.8 0
      vertex -69.85 44.45 0
      vertex -69.85 -44.45 0
    endloop
  endfacet
  facet normal -0 0 -1
    outer loop
      vertex 76.2 50.8 0
      vertex 69.85 44.45 0
      vertex -76.2 50.8 0
    endloop
  endfacet
  facet normal 0 -0 1
    outer loop
      vertex -69.85 44.45 0.8
      vertex 69.85 44.45 0.8
      vertex -76.2 50.8 0.8
    endloop
  endfacet
  facet normal 0 0 1
    outer loop
      vertex -76.2 -50.8 0.8
      vertex 76.2 -50.8 0.8
      vertex 69.85 -44.45 0.8
    endloop
  endfacet
  facet normal 0 0 1
    outer loop
      vertex 69.85 44.45 0.8
      vertex 69.85 -44.45 0.8
      vertex 76.2 -50.8 0.8
    endloop
  endfacet
  facet normal 0 -0 1
    outer loop
      vertex 76.2 -50.8 0.8
      vertex 76.2 50.8 0.8
      vertex 69.85 44.45 0.8
    endloop
  endfacet
  facet normal 0 0 1
    outer loop
      vertex -76.2 -50.8 0.8
      vertex -69.85 -44.45 0.8
      vertex -76.2 50.8 0.8
    endloop
  endfacet
  facet normal 0 0 1
    outer loop
      vertex -76.2 -50.8 0.8
      vertex 69.85 -44.45 0.8
      vertex -69.85 -44.45 0.8
    endloop
  endfacet
  facet normal 0 -0 1
    outer loop
      vertex -69.85 -44.45 0.8
      vertex -69.85 44.45 0.8
      vertex -76.2 50.8 0.8
    endloop
  endfacet
  facet normal -0 0 1
    outer loop
      vertex -76.2 50.8 0.8
      vertex 69.85 44.45 0.8
      vertex 76.2 50.8 0.8
    endloop
  endfacet
  facet normal 0 1 0
    outer loop
      vertex -76.2 50.8 0
      vertex 76.2 50.8 0.8
      vertex 76.2 50.8 0
    endloop
  endfacet
  facet normal 0 1 0
    outer loop
      vertex -76.2 50.8 0
      vertex -76.2 50.8 0.8
      vertex 76.2 50.8 0.8
    endloop
  endfacet
  facet normal -1 0 0
    outer loop
      vertex -76.2 -50.8 0
      vertex -76.2 50.8 0.8
      vertex -76.2 50.8 0
    endloop
  endfacet
  facet normal -1 0 0
    outer loop
      vertex -76.2 -50.8 0
      vertex -76.2 -50.8 0.8
      vertex -76.2 50.8 0.8
    endloop
  endfacet
  facet normal 0 -1 0
    outer loop
      vertex 76.2 -50.8 0
      vertex -76.2 -50.8 0.8
      vertex -76.2 -50.8 0
    endloop
  endfacet
  facet normal 0 -1 0
    outer loop
      vertex 76.2 -50.8 0
      vertex 76.2 -50.8 0.8
      vertex -76.2 -50.8 0.8
    endloop
  endfacet
  facet normal 1 0 0
    outer loop
      vertex 76.2 50.8 0
      vertex 76.2 -50.8 0.8
      vertex 76.2 -50.8 0
    endloop
  endfacet
  facet normal 1 0 -0
    outer loop
      vertex 76.2 50.8 0
      vertex 76.2 50.8 0.8
      vertex 76.2 -50.8 0.8
    endloop
  endfacet
  facet normal 1 0 -0
    outer loop
      vertex -69.85 44.45 0
      vertex -69.85 44.45 0.8
      vertex -69.85 -44.45 0
    endloop
  endfacet
  facet normal 1 -0 0
    outer loop
      vertex -69.85 -44.45 0.8
      vertex -69.85 -44.45 0
      vertex -69.85 44.45 0.8
    endloop
  endfacet
  facet normal 0 -1 0
    outer loop
      vertex 69.85 44.45 0
      vertex 69.85 44.45 0.8
      vertex -69.85 44.45 0
    endloop
  endfacet
  facet normal 0 -1 0
    outer loop
      vertex -69.85 44.45 0.8
      vertex -69.85 44.45 0
      vertex 69.85 44.45 0.8
    endloop
  endfacet
  facet normal -1 0 0
    outer loop
      vertex 69.85 -44.45 0
      vertex 69.85 -44.45 0.8
      vertex 69.85 44.45 0
    endloop
  endfacet
  facet normal -1 -0 -0
    outer loop
      vertex 69.85 44.45 0.8
      vertex 69.85 44.45 0
      vertex 69.85 -44.45 0.8
    endloop
  endfacet
  facet normal 0 1 0
    outer loop
      vertex -69.85 -44.45 0
      vertex -69.85 -44.45 0.8
      vertex 69.85 -44.45 0
    endloop
  endfacet
  facet normal 0 1 0
    outer loop
      vertex 69.85 -44.45 0.8
      vertex 69.85 -44.45 0
      vertex -69.85 -44.45 0.8
    endloop
  endfacet
endsolid OpenSCAD_Model
