<?xml version="1.0" standalone="no"?>
<!DOCTYPE svg PUBLIC "-//W3C//DTD SVG 20010904//EN"
 "http://www.w3.org/TR/2001/REC-SVG-20010904/DTD/svg10.dtd">
<svg version="1.0" xmlns="http://www.w3.org/2000/svg"
 width="1280.000000pt" height="720.000000pt" viewBox="0 0 1280.000000 720.000000"
 preserveAspectRatio="xMidYMid meet">
<metadata>
Created by potrace 1.16, written by Peter Selinger 2001-2019
</metadata>
<g transform="translate(0.000000,720.000000) scale(0.100000,-0.100000)"
fill="#000000" stroke="none">
<path d="M4220 3600 l0 -600 2175 0 2175 0 0 101 c0 64 -4 98 -10 94 -5 -3
-10 -12 -10 -19 0 -19 -39 -34 -105 -39 -58 -5 -148 -37 -160 -57 -25 -40
-167 -65 -204 -36 -12 10 -175 12 -371 6 -25 -1 -74 2 -109 5 -41 5 -82 3
-117 -5 -44 -11 -59 -11 -78 0 -25 13 -133 10 -321 -10 -224 -23 -215 -23
-347 4 -139 28 -274 34 -340 14 -31 -9 -44 -9 -59 0 -26 16 -85 15 -112 -2
-76 -50 -289 -62 -372 -21 -27 13 -62 25 -77 25 -15 0 -49 12 -75 26 -38 21
-69 28 -152 35 -58 5 -109 13 -115 19 -14 14 -263 13 -272 -1 -10 -16 -90 -2
-259 46 -33 10 -76 21 -95 26 -91 22 -131 37 -154 58 -14 13 -46 27 -72 32
-26 5 -55 16 -64 24 -22 20 -96 45 -134 45 -56 0 -115 36 -137 83 -20 46 -25
102 -9 112 6 3 10 25 10 49 0 42 29 86 58 86 6 0 22 14 34 31 19 25 82 63 123
73 6 2 23 8 38 14 16 7 37 12 47 12 10 0 21 4 24 9 3 4 24 11 47 14 28 4 56
18 89 46 27 23 52 41 56 41 4 0 25 15 48 33 71 57 93 67 145 67 27 0 53 -4 56
-10 3 -5 21 -10 40 -10 19 0 46 -5 60 -10 32 -12 65 2 65 29 0 37 93 116 159
135 33 9 61 19 61 22 0 2 -265 4 -590 4 l-590 0 0 -600z"/>
<path d="M5695 4193 c19 -4 51 -19 140 -65 22 -11 67 -23 100 -26 33 -3 80
-14 105 -25 25 -12 52 -22 60 -22 8 -1 21 -3 28 -4 7 0 17 -12 24 -25 13 -31
91 -62 173 -71 33 -3 64 -10 69 -15 6 -6 27 -10 48 -10 22 0 58 -10 81 -21 38
-20 46 -21 97 -10 117 26 133 25 206 -9 64 -30 72 -31 109 -20 87 26 112 24
188 -13 40 -19 83 -38 96 -42 32 -10 119 -62 151 -91 57 -51 118 -69 220 -67
306 8 304 8 337 -9 18 -9 46 -19 63 -23 16 -4 32 -11 35 -16 4 -5 14 -9 24 -9
10 0 25 -7 32 -16 22 -26 81 -60 117 -67 18 -4 61 -27 96 -52 35 -25 69 -45
75 -45 6 0 19 -4 29 -9 9 -5 29 -14 44 -21 15 -7 32 -25 38 -39 6 -15 28 -44
50 -65 l40 -39 0 477 0 476 -1447 -1 c-797 -1 -1439 -3 -1428 -6z"/>
</g>
</svg>
