<?xml version="1.0" standalone="no"?>
<!DOCTYPE svg PUBLIC "-//W3C//DTD SVG 20010904//EN"
 "http://www.w3.org/TR/2001/REC-SVG-20010904/DTD/svg10.dtd">
<svg version="1.0" xmlns="http://www.w3.org/2000/svg"
 width="700.000000pt" height="444.000000pt" viewBox="0 0 700.000000 444.000000"
 preserveAspectRatio="xMidYMid meet">
<metadata>
Created by potrace 1.16, written by Peter Selinger 2001-2019
</metadata>
<g transform="translate(0.000000,444.000000) scale(0.100000,-0.100000)"
fill="#000000" stroke="none">
<path d="M0 3536 l0 -905 73 6 c39 3 79 12 88 19 8 8 33 14 55 14 21 0 48 7
58 15 11 8 32 15 47 15 15 0 31 5 34 10 8 14 68 13 82 -1 9 -9 19 -9 40 -1
106 41 356 72 382 48 10 -9 29 -16 44 -16 14 0 28 -4 31 -9 3 -5 35 -9 71 -9
37 0 72 -6 80 -12 10 -9 23 -6 56 10 l42 22 20 -21 21 -20 -28 -10 c-41 -16
-18 -56 27 -47 42 8 53 21 37 40 -17 21 31 41 60 26 23 -13 80 -13 100 0 10 6
21 3 37 -12 21 -20 24 -20 57 -4 45 21 51 32 26 46 -24 13 -16 34 10 27 9 -2
24 0 33 5 31 17 99 -91 95 -149 -3 -45 -1 -48 22 -51 14 -2 32 -10 41 -18 17
-15 39 -1 46 30 1 6 6 25 9 41 12 56 52 75 74 35 9 -17 14 -18 31 -9 15 8 24
8 32 0 6 -6 20 -11 32 -11 12 0 26 -5 33 -12 12 -12 13 -10 16 12 0 6 4 10 9
10 4 0 10 0 13 0 4 0 1 -7 -6 -15 -10 -12 -8 -16 15 -25 50 -19 14 -40 -67
-38 -125 2 -115 -34 13 -45 14 -1 33 -8 43 -16 26 -22 270 -10 296 14 19 17
21 17 39 1 17 -16 24 -16 58 -5 78 27 80 45 4 47 -27 0 -64 8 -81 17 -21 11
-62 17 -119 19 -77 2 -86 4 -86 22 -1 10 -7 18 -14 16 -18 -4 -63 26 -56 37 3
5 22 5 42 0 29 -6 44 -4 62 7 27 18 14 42 -16 29 -10 -5 -38 -9 -63 -9 -29 -1
-45 -5 -45 -13 0 -7 -4 -13 -10 -13 -5 0 -10 6 -10 12 0 17 -66 27 -143 22
-61 -4 -65 -3 -93 27 -31 33 -30 49 2 49 11 0 29 5 40 11 17 8 25 5 48 -20 32
-34 48 -38 77 -17 17 13 22 12 46 -11 26 -25 29 -25 46 -10 11 10 22 13 32 7
19 -11 158 -11 166 1 3 5 10 7 15 3 5 -3 16 0 24 6 21 18 51 5 35 -15 -10 -12
-7 -17 16 -26 16 -5 39 -19 50 -30 14 -13 24 -17 29 -10 3 6 3 11 -1 11 -4 0
1 9 10 19 10 11 15 24 12 29 -7 12 14 31 41 35 32 5 55 27 43 42 -12 14 -182
11 -223 -4 -29 -11 -52 -6 -42 9 14 22 -20 19 -44 -4 -25 -24 -28 -25 -44 -9
-15 16 -18 16 -35 -1 -19 -17 -66 -18 -104 -1 -9 4 -22 4 -28 0 -42 -26 -96
-8 -56 19 14 8 26 26 28 38 5 36 41 44 173 38 l120 -5 0 -27 c1 -37 11 -44 34
-24 14 13 39 18 85 20 45 1 71 7 84 19 10 9 26 17 35 17 9 0 19 5 22 10 5 8
11 7 21 -1 10 -8 22 -8 43 -1 17 6 42 7 58 3 15 -4 44 -3 63 2 46 13 195 15
195 2 0 -5 -17 -11 -37 -12 -21 -2 -61 -11 -90 -20 -29 -8 -75 -17 -103 -20
-27 -2 -57 -7 -65 -10 -8 -4 -18 -7 -22 -7 -32 -4 8 -21 48 -21 30 0 58 -6 69
-15 16 -13 19 -12 33 8 20 30 81 57 96 42 8 -8 4 -16 -13 -29 l-24 -19 21 -11
c31 -17 60 -13 71 8 9 16 16 18 48 11 21 -5 39 -7 42 -5 2 3 10 0 16 -5 19
-16 114 -19 126 -4 16 19 1 35 -29 32 -19 -2 -27 2 -27 12 0 19 31 20 68 2 22
-10 26 -16 17 -27 -8 -9 -8 -15 0 -20 16 -10 0 -27 -21 -22 -10 3 -22 1 -25
-5 -3 -5 -15 -7 -27 -4 -11 3 -33 -2 -49 -10 -23 -12 -33 -13 -44 -3 -8 6 -15
9 -15 5 -1 -3 -2 -10 -3 -15 -2 -20 -16 -22 -38 -7 -33 23 -134 22 -147 -1 -8
-14 -23 -18 -78 -18 -90 0 -94 -22 -8 -42 l60 -14 23 27 c51 59 116 31 75 -32
-19 -30 7 -46 35 -22 33 29 42 30 51 6 11 -28 53 -53 76 -44 20 7 3 36 -22 36
-15 0 -34 39 -26 54 3 4 19 5 36 2 19 -4 39 -1 54 9 13 9 29 13 35 9 6 -4 19
4 28 17 18 23 59 12 45 -12 -3 -4 4 -13 16 -19 33 -18 7 -34 -64 -40 -46 -4
-62 -9 -62 -20 0 -17 72 -33 82 -18 3 6 19 8 35 6 25 -4 42 5 43 22 1 15 39
60 51 60 22 0 27 -20 10 -39 -30 -34 30 -51 70 -20 5 5 19 6 31 3 28 -8 89 24
75 38 -8 8 -15 8 -26 -1 -10 -8 -16 -9 -21 -1 -3 5 -21 10 -39 10 -23 0 -38 7
-48 21 -7 12 -25 22 -38 23 -14 0 -25 5 -25 11 0 17 58 15 77 -2 14 -13 21
-14 30 -5 7 7 26 12 43 12 17 0 40 7 51 15 26 20 44 19 68 -4 73 -67 162 -80
121 -18 -19 30 -8 41 22 22 18 -12 26 -13 43 -3 15 10 22 10 32 0 28 -28 58
19 31 50 -18 20 1 36 23 17 11 -9 18 -9 32 4 23 21 63 -2 55 -31 -5 -21 22
-49 32 -33 8 14 75 -50 75 -71 0 -25 -11 -28 -39 -8 -32 23 -54 28 -61 15 -3
-6 12 -19 34 -29 l39 -19 -23 -17 c-13 -10 -18 -20 -13 -23 6 -4 22 2 35 13
19 14 28 16 36 8 9 -9 18 -6 37 12 14 13 26 20 26 17 1 -4 2 -12 3 -19 1 -16
23 -21 31 -8 4 6 1 17 -5 25 -17 21 25 35 65 23 16 -5 38 -12 48 -15 9 -3 24
0 31 7 11 8 20 9 35 0 23 -12 27 -25 10 -35 -13 -9 20 -47 35 -42 6 2 11 17
11 33 0 24 4 28 22 26 12 -2 24 1 27 7 4 5 22 7 41 4 21 -3 41 -1 50 7 22 19
140 -6 132 -28 -1 -4 3 -8 8 -9 6 -2 11 2 11 7 3 21 4 22 17 11 8 -6 17 -7 23
-2 5 5 58 1 124 -10 63 -11 154 -21 201 -22 110 -3 210 -61 159 -92 -31 -19
83 -46 116 -27 19 11 121 -78 110 -96 -12 -20 11 -21 29 -2 14 15 15 23 6 33
-34 42 42 20 79 -23 28 -31 87 -28 61 4 -7 8 -8 17 -3 20 6 3 15 -1 22 -9 7
-8 17 -15 23 -15 6 0 30 -18 53 -41 40 -39 78 -53 190 -73 12 -2 31 -9 42 -15
11 -6 51 -11 88 -11 67 0 69 -1 139 -55 40 -30 76 -55 81 -55 5 0 25 -17 45
-38 l35 -38 -27 -27 c-22 -21 -29 -24 -38 -13 -8 10 -7 17 4 26 16 14 2 45
-16 34 -5 -3 -17 0 -28 6 -21 10 -40 -3 -21 -15 24 -15 -6 -25 -70 -25 -59 0
-71 3 -80 20 -15 28 -98 26 -120 -2 -15 -17 -18 -18 -52 -4 -38 16 -55 11 -37
-10 16 -19 -16 -30 -44 -16 -22 11 -62 17 -177 28 -36 4 -75 13 -87 21 -13 9
-30 13 -38 10 -20 -8 -75 12 -108 40 -16 13 -33 20 -39 17 -16 -10 37 -56 84
-74 24 -8 41 -20 38 -25 -7 -14 -355 -10 -408 4 -34 10 -47 9 -58 0 -12 -10
-19 -8 -37 9 -18 17 -35 21 -97 21 -171 2 -256 7 -277 19 -17 10 -28 10 -44 2
-11 -6 -37 -10 -57 -8 -26 2 -36 -1 -34 -9 1 -7 3 -18 5 -25 2 -11 -38 -21
-78 -18 -11 0 -60 3 -110 5 -136 7 -160 13 -207 55 -24 20 -68 47 -98 60 -30
12 -72 31 -92 41 -23 12 -46 17 -61 14 -14 -4 -28 -2 -31 4 -4 6 -20 11 -37
11 -19 0 -42 12 -68 35 -33 30 -42 34 -64 26 -17 -7 -32 -5 -53 5 -16 9 -30
15 -31 15 -2 -1 -2 1 0 2 5 8 -26 36 -35 31 -5 -3 -4 -12 3 -20 14 -17 2 -34
-27 -38 -11 -2 -17 -7 -15 -12 2 -5 6 -15 9 -22 10 -27 -26 -47 -89 -48 -33 0
-65 -6 -71 -12 -7 -7 -19 -12 -28 -12 -39 0 -59 -44 -34 -72 18 -19 3 -55 -18
-42 -5 3 -15 0 -23 -6 -15 -12 -86 -10 -178 6 -25 4 -45 1 -60 -8 -24 -16
-395 -15 -468 1 -21 5 -44 4 -54 -2 -10 -5 -46 -7 -81 -4 -35 2 -66 2 -69 -2
-4 -3 -102 -7 -218 -8 -346 -3 -759 -11 -800 -16 -20 -3 -40 -1 -43 4 -9 15
-127 8 -146 -9 -16 -14 -20 -13 -37 2 -11 10 -24 15 -30 12 -5 -4 -28 -2 -51
3 -35 8 -42 7 -51 -11 -8 -14 -17 -18 -32 -14 -78 23 -121 26 -143 11 -13 -8
-25 -11 -28 -7 -2 4 -42 6 -88 5 -120 -4 -143 -7 -160 -21 -8 -6 -35 -14 -59
-16 -24 -2 -46 -4 -48 -5 -24 -6 49 -52 75 -48 20 3 40 0 54 -10 18 -13 27
-14 42 -4 13 8 24 8 37 2 10 -6 21 -8 24 -4 4 3 13 0 21 -6 22 -18 151 -10
151 9 0 11 -9 14 -32 12 -38 -4 -53 15 -21 27 32 12 43 12 44 1 1 -5 2 -13 3
-17 0 -3 9 1 19 11 18 15 20 15 35 -2 18 -20 14 -34 -7 -26 -15 6 -41 -22 -28
-30 5 -3 46 -8 91 -12 45 -4 84 -11 87 -15 7 -12 91 -11 137 2 29 8 51 6 100
-7 136 -36 181 -43 312 -48 50 -2 126 -13 170 -24 157 -39 269 -56 293 -43 27
15 48 5 32 -14 -18 -22 7 -28 55 -15 46 13 81 8 70 -10 -3 -5 -17 -10 -30 -10
-13 0 -26 -4 -29 -9 -3 -5 -30 -12 -61 -16 -58 -7 -74 -18 -56 -39 7 -9 7 -16
-1 -24 -17 -17 29 -64 55 -56 11 3 46 7 78 8 69 2 79 9 45 31 -14 10 -23 21
-20 26 7 11 65 9 80 -3 7 -5 16 -7 20 -6 5 2 10 -1 12 -7 1 -5 -3 -10 -10 -10
-20 0 -20 -23 1 -35 25 -13 27 -33 6 -50 -31 -25 18 -34 50 -9 15 11 117 28
196 33 82 4 123 -11 124 -45 0 -20 5 -24 25 -21 52 5 75 1 92 -16 8 -8 18 -3
39 19 28 30 66 34 104 11 6 -4 18 -5 28 -3 10 1 26 -4 35 -11 36 -30 138 -14
112 17 -7 8 -9 15 -5 15 4 0 2 7 -5 15 -7 8 -18 14 -24 13 -6 -2 -11 1 -11 7
0 5 11 10 25 10 15 0 25 -6 25 -15 0 -18 44 -30 68 -18 9 5 17 18 17 29 0 26
25 35 58 19 60 -29 119 -45 143 -39 13 4 33 5 45 2 11 -2 26 3 33 11 12 14 16
14 43 -5 33 -24 34 -65 2 -100 -18 -20 -10 -43 12 -35 7 3 18 -3 24 -14 6 -11
26 -22 45 -26 48 -9 53 -22 20 -48 -20 -16 -25 -25 -16 -30 20 -13 -8 -36 -44
-36 -38 0 -49 -8 -33 -27 6 -8 7 -17 2 -22 -14 -13 -93 -20 -100 -10 -3 6 -11
6 -19 -1 -8 -6 -24 -10 -36 -8 -28 4 -36 -17 -11 -31 13 -7 38 -7 78 0 72 13
176 -30 138 -58 -23 -17 -102 -17 -135 1 -38 19 -77 27 -84 17 -3 -6 4 -15 15
-21 11 -6 18 -15 15 -21 -9 -14 -97 -10 -125 6 -14 8 -37 14 -51 15 -14 0 -28
3 -31 6 -3 3 -35 7 -70 8 -35 2 -74 8 -86 15 -11 6 -36 11 -56 11 -43 0 -56
17 -22 30 31 11 32 16 7 30 -14 7 -27 6 -48 -5 -38 -20 -56 -19 -78 5 -13 15
-22 17 -36 10 -41 -23 -104 -6 -104 27 0 16 -9 18 -72 18 -39 0 -75 3 -79 7
-4 5 -21 8 -37 8 -16 0 -58 5 -92 12 -70 12 -104 6 -86 -16 6 -7 8 -16 4 -19
-11 -12 -40 -8 -52 7 -20 24 -106 -3 -106 -34 0 -15 -9 -26 -25 -33 -14 -5
-36 -14 -49 -21 -29 -13 -188 -13 -294 2 -43 6 -128 12 -190 13 -61 1 -134 6
-162 11 -74 12 -218 17 -236 7 -13 -6 -21 -2 -34 17 -15 24 -18 24 -34 10 -26
-24 -99 -21 -127 5 -12 12 -33 21 -46 20 -13 -1 -36 -1 -53 0 -16 0 -86 1
-155 3 -69 1 -129 3 -135 5 -22 7 -27 0 -12 -16 28 -32 25 -48 -9 -45 -18 2
-36 -3 -44 -12 -7 -9 -26 -16 -42 -16 -17 0 -31 -6 -35 -16 -3 -8 -17 -20 -30
-25 -31 -12 -24 -35 10 -31 14 1 28 -2 31 -7 4 -5 21 -5 43 0 133 31 247 -15
267 -107 10 -47 99 -103 101 -64 1 8 5 23 10 34 6 14 2 23 -14 35 l-22 17 20
19 c12 10 21 28 21 41 0 36 104 38 168 4 9 -4 25 -11 36 -14 11 -4 16 -12 12
-21 -8 -22 13 -29 33 -11 16 14 20 15 30 2 10 -11 7 -17 -11 -30 -32 -23 -48
-20 -83 14 -66 64 -172 61 -141 -5 18 -37 21 -37 73 -18 6 3 17 -5 23 -17 7
-13 48 -39 97 -62 59 -28 82 -43 75 -50 -8 -8 -26 -3 -60 15 -54 28 -87 21
-80 -18 2 -16 -5 -21 -40 -25 -51 -8 -55 -5 -35 26 14 22 14 24 0 30 -19 7
-40 -4 -32 -16 21 -34 -88 -60 -147 -35 -57 23 -78 -12 -33 -55 41 -39 19 -74
-58 -89 -35 -7 -45 -36 -12 -36 23 0 28 -20 5 -20 -8 -1 -21 -4 -28 -9 -7 -4
-20 -5 -31 -1 -10 3 -28 -3 -42 -13 -13 -11 -30 -17 -37 -14 -7 2 -24 -6 -37
-18 l-24 -22 -25 19 c-15 12 -49 23 -83 27 -32 4 -80 17 -106 30 -39 20 -53
23 -81 15 -24 -7 -43 -5 -70 6 l-36 15 0 -121 0 -121 24 6 c14 3 28 1 31 -4 9
-15 -14 -40 -36 -40 -13 0 -19 -7 -19 -24 0 -22 3 -23 27 -17 16 4 40 3 54 -2
21 -8 34 -6 65 14 22 13 44 22 49 20 52 -18 121 -18 141 0 20 19 21 19 45 1
16 -13 30 -17 44 -11 11 4 56 8 101 8 45 1 94 5 110 11 52 17 163 19 199 4 19
-8 40 -11 49 -8 8 3 27 -1 43 -9 15 -8 44 -18 63 -22 19 -4 43 -14 52 -22 9
-8 22 -12 28 -8 6 3 33 -1 60 -10 27 -9 54 -14 59 -10 11 6 38 -19 57 -50 6
-11 15 -15 23 -11 9 6 9 11 1 21 -8 9 -8 15 0 20 5 3 10 3 10 -1 0 -3 12 1 26
11 25 16 27 16 48 -4 12 -12 30 -21 40 -21 20 0 28 6 179 133 103 85 136 104
165 91 9 -4 23 -6 29 -5 7 1 23 -5 35 -13 31 -19 136 -38 203 -35 48 2 60 -1
92 -28 57 -45 92 -60 161 -67 35 -4 76 -12 90 -17 15 -6 122 -11 241 -11 l214
-1 17 42 c21 55 32 61 112 61 60 0 69 3 83 24 9 13 30 29 48 36 18 6 39 15 47
19 16 9 115 -33 115 -48 0 -21 14 -21 25 -1 9 17 19 20 56 19 50 -3 61 -11 39
-29 -33 -27 8 -34 43 -7 7 6 53 11 101 11 57 1 94 6 104 14 13 11 27 11 69 3
56 -12 251 -9 280 3 9 4 37 4 61 -2 25 -5 51 -5 60 -1 11 7 20 0 36 -27 22
-36 20 -64 -3 -45 -9 7 -19 6 -33 -4 -19 -13 -24 -11 -61 21 -22 19 -43 30
-46 25 -3 -5 1 -14 9 -21 53 -44 45 -90 -15 -90 -39 0 -92 41 -71 55 21 12 1
24 -33 18 -19 -3 -36 -1 -40 6 -8 13 -102 15 -110 2 -6 -9 38 -54 46 -46 3 3
13 -6 22 -19 16 -25 7 -44 -14 -31 -6 4 -23 -1 -38 -11 -15 -10 -38 -24 -51
-31 -33 -18 -144 -25 -194 -12 -133 33 -182 41 -198 31 -13 -8 -21 -6 -34 8
-31 34 -93 39 -65 5 17 -21 -8 -30 -29 -11 -16 15 -19 14 -40 -8 -18 -19 -33
-24 -73 -24 -69 0 -80 -15 -32 -42 169 -93 190 -123 134 -190 -17 -19 -30 -38
-30 -42 0 -18 1658 -9 1669 9 7 13 20 16 55 14 34 -2 54 3 75 18 16 12 35 21
43 21 7 0 23 6 34 14 38 27 143 40 165 20 19 -17 21 -15 23 16 1 8 13 21 29
28 15 7 35 24 43 38 18 27 36 31 53 10 7 -8 28 -17 49 -21 20 -4 46 -15 58
-26 21 -19 21 -19 46 1 15 11 35 20 46 20 12 0 24 5 27 11 4 5 18 15 32 20 19
7 24 15 20 29 -3 11 -1 23 4 26 6 3 7 14 4 23 -8 26 22 46 90 61 54 13 113 50
189 120 14 14 -62 44 -78 31 -10 -8 -16 -8 -24 2 -27 32 67 70 108 45 15 -10
22 -10 31 -1 10 10 6 15 -15 23 -22 8 -26 13 -17 24 6 7 8 16 4 19 -12 13 -50
7 -63 -8 -9 -11 -16 -13 -23 -6 -7 7 -4 18 11 34 20 21 20 24 6 39 -19 19 -11
38 15 38 25 0 33 -11 20 -26 -21 -25 1 -35 60 -28 38 4 66 2 80 -6 17 -9 26
-9 36 0 8 7 32 13 54 14 21 1 46 8 55 15 14 12 19 11 35 -3 13 -12 21 -14 26
-6 3 5 11 8 16 4 14 -8 49 25 49 48 0 25 -44 45 -64 29 -8 -7 -17 -8 -20 -3
-6 11 20 36 47 45 30 11 8 30 -26 23 -43 -9 -60 -25 -45 -43 21 -26 -16 -52
-42 -28 -16 14 -23 15 -34 6 -8 -7 -28 -11 -43 -10 -15 2 -33 0 -40 -4 -6 -4
-14 -3 -18 2 -7 12 -64 41 -80 41 -7 0 -18 7 -25 15 -11 13 -15 12 -35 -9 -44
-47 -136 -51 -141 -6 -1 6 -2 12 -3 15 0 3 -10 1 -21 -5 -11 -6 -18 -15 -15
-20 12 -19 -16 -19 -60 0 -39 17 -45 23 -35 35 19 23 4 32 -45 25 -54 -8 -64
-2 -34 21 l22 17 -33 17 c-29 15 -31 18 -17 32 12 12 19 13 37 3 12 -6 28 -9
36 -6 8 3 18 -4 25 -15 8 -16 13 -18 25 -8 10 8 11 15 4 24 -6 7 -6 15 1 22
15 15 -8 28 -25 14 -7 -6 -16 -8 -20 -4 -4 4 -51 8 -104 9 -154 1 -197 39 -50
43 45 1 87 6 92 11 6 6 20 10 32 10 12 0 27 7 34 15 18 22 68 9 100 -25 33
-35 95 -46 176 -30 32 6 68 13 79 15 11 2 38 8 60 14 47 12 67 10 89 -8 18
-15 35 -10 96 29 14 9 43 22 65 29 22 7 47 19 55 27 31 26 162 34 190 10 31
-26 50 -27 60 -2 12 34 28 41 49 22 10 -9 36 -18 58 -20 22 -2 50 -9 62 -16
19 -9 26 -9 40 4 10 9 25 16 34 16 9 0 19 4 22 10 8 13 68 6 73 -8 7 -23 -147
-78 -195 -71 -35 6 -47 -11 -24 -35 l21 -22 -30 -35 c-16 -18 -29 -44 -30 -56
0 -26 -16 -38 -33 -25 -9 7 -24 3 -51 -13 -40 -24 -76 -25 -121 -4 -24 11 -97
-1 -93 -16 2 -5 21 -11 43 -11 57 -2 42 -54 -16 -54 -15 0 -31 -5 -34 -10 -10
-17 16 -42 34 -34 9 4 45 9 81 11 110 5 150 14 160 33 10 18 110 70 136 70 7
0 21 11 29 24 17 25 94 61 155 72 43 8 70 21 70 34 0 12 -69 42 -80 35 -5 -3
-11 -1 -14 4 -4 5 -2 12 4 16 5 3 10 14 10 24 0 31 42 52 81 41 54 -16 69 -13
69 14 0 23 -4 24 -82 32 -63 7 -83 13 -83 24 0 8 7 14 17 12 9 -1 30 11 46 28
34 34 58 32 73 -6 16 -43 30 -27 27 28 -3 44 -7 54 -28 65 -14 7 -25 17 -25
22 0 20 -15 24 -32 9 -24 -22 -57 -26 -76 -10 -8 7 -26 14 -39 16 -39 4 -71
26 -59 40 6 7 9 15 6 18 -9 9 24 30 35 23 8 -5 8 -10 0 -20 -8 -9 -8 -15 0
-20 10 -6 11 -5 14 14 3 22 18 23 41 1 20 -18 28 -21 37 -12 7 7 8 12 4 12 -5
0 -3 7 4 15 7 8 27 15 44 15 37 0 76 -23 57 -34 -12 -8 -6 -26 10 -26 35 0 3
95 -34 101 -56 9 -79 34 -45 50 19 8 31 8 46 0 38 -20 42 -14 42 68 0 79 0 80
-27 83 -16 2 -28 9 -28 17 0 15 -35 28 -90 35 -16 2 -28 7 -25 12 3 5 8 8 12
7 27 -9 60 18 44 36 -15 16 -15 19 3 35 21 19 43 14 35 -9 -8 -21 13 -53 46
-70 l30 -16 0 115 c0 69 -4 117 -10 121 -8 5 -7 11 1 21 19 23 -5 43 -30 27
-16 -10 -22 -8 -34 10 -12 18 -17 20 -30 9 -9 -8 -25 -11 -36 -7 -14 4 -23 0
-31 -15 -12 -22 -35 -17 -26 5 7 18 -19 52 -28 37 -9 -15 -92 -16 -101 -2 -4
6 -10 8 -15 5 -5 -3 -18 -2 -27 4 -13 6 -29 5 -50 -4 -22 -10 -35 -10 -39 -3
-4 6 -21 8 -41 5 -41 -7 -87 8 -77 24 9 15 304 5 333 -10 12 -7 22 -7 25 -2 4
5 44 9 91 10 128 0 125 -2 125 91 0 64 -3 78 -14 74 -20 -8 -28 12 -11 26 8 7
13 16 10 20 -3 5 -1 11 5 15 7 4 10 368 10 1096 l0 1089 -3500 0 -3500 0 0
-904z m2998 -154 c-4 -19 -84 -26 -95 -9 -3 5 6 21 21 34 30 25 80 8 74 -25z
m-565 -128 c13 -13 -59 -127 -75 -118 -5 3 -15 1 -22 -5 -13 -11 -56 43 -56
69 0 32 129 78 153 54z m-300 -10 c13 -14 -95 -144 -117 -140 -26 5 -24 16 21
89 33 55 71 75 96 51z m-68 -203 c3 -5 1 -13 -5 -16 -8 -5 -7 -11 1 -21 9 -11
8 -15 -4 -20 -19 -7 -40 4 -32 16 3 5 1 12 -5 15 -8 5 -7 11 1 21 13 16 35 18
44 5z m157 -46 c-6 -54 -64 -72 -70 -22 -5 45 4 57 40 54 30 -3 33 -6 30 -32z
m-907 -101 c26 -30 45 -54 43 -55 -62 -15 -208 70 -185 108 18 29 97 0 142
-53z m-167 -25 c-1 -13 -7 -24 -13 -24 -12 0 -19 31 -11 52 10 24 29 1 24 -28z
m2116 -48 c3 -5 -5 -16 -19 -25 -14 -9 -24 -20 -24 -24 3 -16 -2 -23 -11 -17
-8 5 -7 11 1 21 6 8 8 14 4 14 -5 0 0 9 10 20 20 22 31 25 39 11z m-839 -52
c0 -17 -43 -25 -58 -10 -7 7 -3 13 14 20 30 12 44 9 44 -10z m4386 -989 c26
-15 24 -20 -21 -58 -48 -40 -75 -33 -35 8 17 18 23 30 16 35 -29 17 8 31 40
15z m-4526 -19 c2 -5 24 -5 47 -1 64 12 81 -8 30 -34 -25 -13 -30 -12 -52 4
-18 14 -30 16 -48 9 -14 -5 -34 -6 -46 -3 -11 4 -40 6 -63 5 -45 -3 -67 5 -58
19 7 11 183 12 190 1z m4040 -36 c0 -12 -31 -19 -51 -11 -8 3 -12 11 -9 17 8
13 60 8 60 -6z m-4300 -45 c8 -13 -37 -31 -49 -20 -4 5 -5 13 -2 19 9 14 43
14 51 1z m635 -100 c-8 -15 -19 -19 -43 -16 -33 3 -36 19 -4 21 10 1 23 7 29
13 17 17 30 4 18 -18z m4220 -29 c30 -29 30 -41 0 -41 -18 0 -63 54 -53 64 12
11 25 6 53 -23z m-50 -69 c42 -21 38 -38 -9 -35 -44 3 -66 21 -50 39 14 17 16
17 59 -4z m-3282 -185 c6 -7 26 -14 44 -15 18 -2 44 -10 58 -19 14 -9 43 -19
65 -21 43 -4 50 -7 50 -25 0 -16 43 -21 60 -7 9 7 20 8 32 2 32 -16 85 -23 99
-11 13 11 66 -10 79 -31 3 -5 17 -10 29 -10 13 0 29 -7 36 -15 15 -18 13 -18
-66 -15 -35 1 -65 -3 -68 -9 -5 -7 -14 -7 -29 0 -16 7 -40 6 -85 -5 -35 -8
-69 -13 -75 -11 -18 7 -138 17 -178 16 -41 -1 -70 22 -51 41 6 6 18 7 29 3 21
-10 54 -7 67 5 13 12 -13 41 -33 38 -9 -1 -27 5 -41 13 -14 9 -43 17 -64 18
-56 3 -60 8 -29 41 30 32 54 37 71 17z m3240 -310 c24 -19 -6 -38 -49 -31 -30
5 -44 2 -59 -11 -18 -16 -20 -17 -26 -1 -14 35 97 71 134 43z m-2008 -47 c14
-11 33 -20 42 -20 10 0 22 -9 28 -19 15 -29 -5 -37 -37 -14 -14 10 -33 23 -42
28 -38 23 -41 27 -36 36 9 13 17 11 45 -11z m423 -36 c12 -13 -14 -44 -37 -44
-32 0 -39 10 -19 32 16 18 44 24 56 12z m210 -62 c-6 -9 -17 -16 -23 -14 -7 1
-18 -2 -24 -8 -7 -5 -16 -7 -19 -3 -4 3 8 19 25 34 35 29 62 24 41 -9z m-2169
-32 c11 -11 -1 -30 -20 -30 -22 0 -65 31 -58 42 6 10 63 1 78 -12z m2197 -62
c26 4 64 -17 51 -30 -20 -20 -201 -34 -232 -18 -35 19 -18 35 32 31 25 -1 49
2 53 8 3 6 10 9 15 6 4 -3 13 2 20 10 10 12 15 13 28 3 8 -7 23 -12 33 -10z
m-2247 -17 c11 -17 -22 -35 -39 -21 -18 15 -11 30 15 30 10 0 21 -4 24 -9z
m2477 -118 c15 -15 -8 -28 -25 -14 -7 6 -16 8 -19 5 -10 -10 -39 5 -32 16 7
12 62 7 76 -7z m-103 -9 c25 -8 0 -24 -37 -24 -44 0 -55 8 -40 26 10 13 33 12
77 -2z m-4373 -19 c0 -12 -31 -19 -51 -11 -8 3 -12 11 -9 17 8 13 60 8 60 -6z
m3889 -36 c5 -4 18 -3 30 3 31 17 44 18 57 2 8 -10 22 -12 44 -8 43 8 53 -10
16 -29 -29 -15 -102 -10 -131 8 -8 5 -37 9 -65 10 -53 0 -72 16 -33 26 25 7
68 1 82 -12z m362 -8 c24 -14 35 -16 50 -8 41 23 95 17 74 -8 -14 -17 1 -27
20 -14 36 22 98 11 113 -21 19 -36 1 -55 -21 -22 -12 18 -18 20 -35 10 -57
-30 -144 -14 -112 22 23 25 1 37 -30 16 -13 -9 -26 -12 -29 -8 -3 5 -29 9 -57
11 -63 3 -74 8 -58 27 16 19 48 17 85 -5z m-5262 -56 c52 -22 36 -38 -28 -30
-64 9 -74 15 -51 32 24 17 34 16 79 -2z m3980 -216 c6 -5 3 -11 -7 -14 -19 -8
-60 12 -51 26 6 10 42 3 58 -12z m-158 -30 c3 -6 22 -18 42 -26 52 -22 28 -39
-35 -24 -26 5 -81 10 -121 9 -115 -2 -142 36 -32 45 97 8 139 7 146 -4z"/>
<path d="M3827 2771 c-13 -26 -13 -32 -1 -42 20 -16 50 -3 35 15 -6 7 -9 20
-5 29 11 29 -15 27 -29 -2z"/>
<path d="M3735 2716 c-18 -13 -18 -14 4 -26 31 -16 53 3 30 25 -13 13 -18 13
-34 1z"/>
<path d="M2571 2676 c-25 -26 -14 -43 24 -37 37 6 48 22 29 42 -22 24 -26 24
-53 -5z"/>
<path d="M625 2660 c-4 -6 0 -12 7 -15 21 -7 73 -1 78 10 7 12 -77 17 -85 5z"/>
<path d="M2685 2651 c-7 -12 35 -42 47 -35 11 7 2 21 -22 34 -11 6 -21 6 -25
1z"/>
<path d="M3857 2654 c-3 -4 1 -20 10 -37 l16 -31 18 23 c19 23 17 47 -2 35 -5
-3 -16 -1 -23 5 -7 6 -16 8 -19 5z"/>
<path d="M757 2639 c-26 -15 -11 -29 34 -29 22 0 50 -6 62 -14 32 -20 75 -28
82 -16 11 18 -14 38 -56 45 -21 4 -41 11 -45 16 -7 12 -55 11 -77 -2z"/>
<path d="M4196 2631 c-3 -4 5 -18 18 -30 l24 -23 11 21 c15 27 -37 59 -53 32z"/>
<path d="M4685 2630 c-6 -10 13 -25 22 -16 3 3 12 1 19 -5 18 -15 52 -3 36 13
-14 14 -69 20 -77 8z"/>
<path d="M974 2589 c-10 -17 23 -46 38 -31 8 8 8 15 -2 27 -15 18 -26 19 -36
4z"/>
<path d="M4886 2591 c-3 -4 4 -17 15 -27 l20 -18 -22 -17 c-30 -23 -18 -36 42
-44 62 -9 82 4 54 35 -10 11 -24 20 -31 20 -7 0 -18 9 -24 20 -13 24 -47 43
-54 31z"/>
<path d="M4075 2561 c-3 -5 -2 -12 3 -15 13 -8 57 -1 57 9 0 12 -53 17 -60 6z"/>
<path d="M1074 2549 c-10 -17 23 -46 38 -31 8 8 8 15 -2 27 -15 18 -26 19 -36
4z"/>
<path d="M1831 2546 c-8 -10 -9 -16 -1 -21 16 -10 2 -25 -24 -25 -56 0 -91
-77 -50 -111 24 -20 41 4 24 36 -20 38 -3 49 51 34 24 -7 56 -13 71 -13 14 -1
37 -11 50 -23 31 -29 34 -29 70 7 l29 30 -28 11 c-15 6 -52 15 -81 19 -60 10
-72 16 -72 34 0 24 -26 38 -39 22z"/>
<path d="M1558 2533 c-10 -19 -1 -38 17 -38 13 0 20 7 20 20 0 19 -29 34 -37
18z"/>
<path d="M1396 2501 c-3 -5 10 -19 30 -30 l37 -22 23 22 c29 27 17 47 -16 29
-16 -9 -25 -9 -33 -1 -13 13 -34 14 -41 2z"/>
<path d="M1146 2481 c-7 -11 20 -34 32 -27 5 3 17 -3 27 -14 14 -15 22 -17 37
-9 24 13 12 29 -23 33 -13 1 -34 8 -46 14 -12 7 -24 8 -27 3z"/>
<path d="M1285 2460 c-8 -13 20 -24 41 -16 8 3 12 10 9 16 -8 13 -42 13 -50 0z"/>
<path d="M1565 2457 c-10 -8 -14 -16 -9 -19 14 -9 56 11 49 22 -8 13 -18 13
-40 -3z"/>
<path d="M2066 2451 c-8 -12 32 -31 63 -31 10 0 49 -11 86 -25 55 -21 70 -23
82 -13 13 11 20 7 43 -21 37 -43 50 -22 14 24 -26 34 -47 44 -58 26 -3 -4 -29
3 -57 17 -57 28 -162 42 -173 23z"/>
<path d="M1357 2415 c-15 -14 -37 -25 -47 -25 -33 0 -33 -20 1 -34 51 -21 129
33 99 69 -16 20 -20 19 -53 -10z"/>
<path d="M4114 2419 c-12 -19 33 -56 54 -43 24 15 21 39 -4 40 -12 1 -26 4
-32 8 -6 3 -14 1 -18 -5z"/>
<path d="M4314 2388 c-6 -10 20 -38 37 -38 13 0 31 29 24 40 -8 14 -52 13 -61
-2z"/>
<path d="M4595 2370 c-12 -20 11 -33 39 -24 14 5 27 14 29 19 3 14 -60 19 -68
5z"/>
<path d="M2681 2356 c-13 -16 11 -42 29 -31 6 4 17 2 25 -5 8 -7 15 -7 19 -1
14 21 -56 57 -73 37z"/>
<path d="M4996 2351 c-3 -5 0 -13 7 -19 15 -12 52 -10 52 3 0 6 -4 9 -8 7 -4
-1 -16 2 -27 8 -11 6 -21 6 -24 1z"/>
<path d="M1406 2341 c-4 -6 -4 -15 -1 -21 11 -17 -42 -35 -60 -20 -12 10 -16
9 -21 -4 -15 -39 51 -62 92 -32 15 12 16 17 7 27 -9 9 -10 16 -1 26 8 10 8 17
1 24 -8 8 -13 7 -17 0z"/>
<path d="M5236 2311 c-9 -14 22 -34 41 -26 17 6 17 7 -1 21 -23 16 -33 18 -40
5z"/>
<path d="M5396 2297 c-18 -13 -18 -15 5 -30 26 -18 43 -10 37 19 -4 23 -20 27
-42 11z"/>
<path d="M2354 2268 c-16 -25 45 -48 65 -25 13 16 5 28 -14 21 -7 -3 -16 -1
-20 5 -8 14 -22 14 -31 -1z"/>
<path d="M5654 2213 c-4 -10 -16 -28 -26 -39 -23 -26 -17 -32 42 -34 65 -3 68
-1 40 22 -14 11 -25 30 -25 41 0 26 -23 34 -31 10z"/>
<path d="M100 2075 c-6 -7 -31 -16 -55 -20 -35 -5 -45 -10 -45 -25 0 -25 17
-35 35 -20 8 7 26 10 40 8 14 -3 28 -2 31 3 2 4 10 6 17 3 7 -2 24 7 36 20 18
19 21 27 10 30 -40 12 -59 13 -69 1z"/>
<path d="M228 2033 c0 -5 -2 -12 -3 -18 -2 -5 -3 -14 -4 -19 0 -5 -9 -2 -19 7
-17 15 -21 15 -58 -5 -21 -12 -50 -21 -63 -20 -25 2 -64 -25 -56 -38 4 -7 80
4 115 17 8 3 42 6 76 8 72 2 90 10 73 31 -6 8 -8 14 -3 14 5 0 0 7 -10 15 -21
16 -45 20 -48 8z"/>
<path d="M2987 1513 c-4 -3 -1 -13 5 -21 10 -11 7 -18 -15 -34 -38 -28 -20
-57 19 -31 14 9 22 18 19 21 -3 3 5 16 16 28 l22 23 -27 11 c-32 12 -31 12
-39 3z"/>
<path d="M3034 1439 c-6 -10 13 -22 25 -15 5 3 14 -1 21 -9 10 -12 16 -13 26
-4 10 9 11 15 3 25 -11 14 -67 16 -75 3z"/>
<path d="M3141 1412 c-12 -22 -6 -32 20 -32 27 0 31 15 10 34 -18 17 -20 17
-30 -2z"/>
<path d="M3279 1383 c-1 -4 -1 -15 0 -25 3 -23 -15 -31 -40 -17 -16 8 -28 8
-47 0 l-25 -12 22 -23 c43 -45 68 -52 96 -26 18 17 22 27 14 36 -15 18 3 25
40 14 34 -10 86 3 77 19 -3 4 -27 14 -53 21 -27 7 -56 14 -65 17 -10 2 -19 1
-19 -4z"/>
<path d="M2975 1331 c-3 -5 -1 -13 5 -16 8 -5 8 -11 0 -20 -14 -17 -5 -35 19
-35 25 0 33 -11 19 -27 -21 -26 118 -47 149 -22 19 17 7 27 -31 27 -19 0 -40
3 -45 7 -19 11 -1 26 27 23 19 -2 27 2 27 12 0 8 -6 15 -12 15 -7 0 -13 5 -13
10 0 6 5 10 10 10 6 0 9 5 8 10 -5 17 -52 7 -67 -15 -18 -27 -35 -25 -55 5
-17 26 -31 31 -41 16z"/>
<path d="M245 1240 c-10 -16 4 -30 30 -30 32 0 40 16 16 29 -25 14 -38 14 -46
1z"/>
<path d="M2924 1229 c-3 -6 -1 -16 4 -21 13 -13 45 8 36 23 -7 12 -31 11 -40
-2z"/>
<path d="M116 1162 c-4 -6 -28 -8 -61 -5 l-55 6 0 -36 0 -35 72 2 c54 2 82 8
107 23 27 17 38 19 58 10 17 -7 27 -7 34 0 18 18 0 34 -34 32 -18 -1 -51 2
-73 6 -26 4 -44 3 -48 -3z"/>
<path d="M5740 821 c-49 -8 -47 -35 3 -39 27 -2 39 1 43 13 9 24 -6 32 -46 26z"/>
<path d="M5971 606 c-21 -25 68 -63 92 -39 11 10 -23 42 -38 37 -7 -3 -16 -1
-20 5 -9 15 -20 14 -34 -3z"/>
<path d="M5985 531 c-6 -11 13 -26 22 -17 4 4 19 -5 33 -19 24 -23 28 -24 40
-10 16 20 3 35 -34 39 -14 1 -29 6 -33 9 -9 10 -21 9 -28 -2z"/>
<path d="M6615 480 c-10 -16 4 -30 29 -30 25 0 51 22 39 33 -10 11 -61 8 -68
-3z"/>
<path d="M2955 410 c-7 -12 20 -24 33 -16 6 3 15 -1 21 -8 13 -16 79 -17 71
-1 -3 6 -12 10 -21 10 -9 1 -23 5 -30 11 -19 14 -66 16 -74 4z"/>
<path d="M1214 229 c-9 -16 12 -33 31 -25 14 5 15 9 5 21 -15 18 -26 19 -36 4z"/>
<path d="M6078 139 c-7 -5 -25 -9 -39 -9 -15 0 -32 -7 -39 -15 -6 -8 -26 -14
-43 -13 -115 4 -169 -35 -107 -76 43 -28 280 -42 280 -15 0 6 7 26 16 44 29
61 -16 117 -68 84z"/>
<path d="M6340 95 c-19 -23 1 -40 30 -25 17 9 19 14 9 26 -15 18 -23 18 -39
-1z"/>
<path d="M5345 86 c-11 -8 -15 -18 -10 -25 4 -7 -2 -22 -16 -37 l-22 -24 24 0
c16 0 30 10 42 31 28 50 18 82 -18 55z"/>
</g>
</svg>
