<?xml version="1.0" standalone="no"?>
<!DOCTYPE svg PUBLIC "-//W3C//DTD SVG 20010904//EN"
 "http://www.w3.org/TR/2001/REC-SVG-20010904/DTD/svg10.dtd">
<svg version="1.0" xmlns="http://www.w3.org/2000/svg"
 width="700.000000pt" height="444.000000pt" viewBox="0 0 700.000000 444.000000"
 preserveAspectRatio="xMidYMid meet">
<metadata>
Created by potrace 1.16, written by Peter Selinger 2001-2019
</metadata>
<g transform="translate(0.000000,444.000000) scale(0.100000,-0.100000)"
fill="#000000" stroke="none">
<path d="M1682 742 c-30 -9 -154 -121 -147 -133 4 -5 52 -9 107 -9 85 0 106
-3 135 -21 27 -17 36 -19 48 -9 8 7 15 9 15 5 0 -5 9 0 20 10 16 14 22 15 34
5 25 -20 -7 -58 -52 -62 -97 -8 6 -47 133 -51 91 -3 93 -3 147 -44 66 -51 320
-104 371 -78 13 6 34 8 49 4 14 -4 70 -5 125 -4 54 2 103 -1 110 -6 11 -10 43
39 43 67 0 21 41 38 105 44 83 7 75 19 -34 56 -52 18 -104 37 -115 42 -12 6
-28 12 -36 15 -23 7 -93 -7 -92 -18 0 -5 -5 -16 -10 -23 -13 -16 -33 0 -33 26
0 15 -16 18 -115 23 -114 7 -153 12 -220 30 -19 5 -47 9 -61 9 -16 0 -50 18
-85 45 -52 41 -63 45 -113 45 -31 1 -90 8 -131 16 -92 19 -168 25 -198 16z
m407 -198 c12 8 24 -11 16 -25 -5 -7 -14 -4 -26 7 -10 9 -19 14 -19 10 0 -4
-5 -4 -10 -1 -6 4 -8 11 -4 16 4 6 11 6 19 -1 8 -7 19 -9 24 -6z m-74 -4 c11
-18 -5 -31 -26 -20 -11 6 -17 15 -14 21 8 12 32 12 40 -1z m631 -40 c18 -7 24
-14 17 -21 -13 -13 -67 7 -58 21 8 12 8 12 41 0z"/>
<path d="M768 685 c-3 -3 -41 -13 -84 -21 -43 -9 -99 -20 -123 -25 -24 -5 -50
-14 -57 -20 -8 -6 -21 -8 -30 -5 -10 4 -25 -1 -36 -11 -19 -17 -48 -19 -365
-23 l-73 -1 0 -56 c0 -44 3 -54 15 -50 87 34 303 11 331 -35 3 -4 16 -8 29 -8
13 0 26 -4 29 -9 7 -12 204 -6 236 6 42 17 241 6 295 -17 26 -11 115 -39 140
-45 172 -39 212 -44 234 -29 16 12 22 11 44 -6 27 -22 62 -26 72 -10 4 6 30
25 58 44 65 41 190 162 185 178 -9 27 -103 31 -136 5 -9 -7 -19 -4 -35 11
l-23 21 -29 -24 c-36 -29 -40 -30 -73 -7 -30 20 -138 22 -247 3 -33 -6 -68 -8
-78 -5 -10 3 -24 1 -32 -6 -28 -23 -24 9 5 39 22 22 27 32 18 38 -27 17 -115
42 -146 43 -18 0 -49 7 -69 15 -38 16 -47 18 -55 10z m47 -124 c10 -17 -11
-20 -34 -5 -26 18 -19 39 9 24 10 -6 21 -14 25 -19z m-735 -16 c10 -12 9 -16
-5 -21 -19 -8 -40 9 -31 25 10 15 21 14 36 -4z"/>
<path d="M5729 484 c-1 -5 -1 -12 0 -16 2 -18 -41 -30 -57 -15 -25 21 -109 11
-123 -15 -6 -11 -26 -26 -45 -34 -19 -8 -32 -19 -29 -24 4 -6 -3 -14 -14 -18
-21 -8 -53 -51 -89 -120 -29 -56 -28 -59 15 -77 39 -17 65 -14 61 7 -2 8 8 13
27 13 59 0 94 30 90 74 -5 52 21 75 100 91 33 6 65 19 72 27 7 9 22 21 35 27
29 15 29 29 -2 36 -14 3 -25 13 -25 22 0 18 -14 37 -16 22z m-31 -67 c18 -12
3 -30 -19 -24 -10 3 -23 -1 -30 -9 -13 -16 -65 -19 -74 -5 -13 23 94 55 123
38z"/>
<path d="M85 447 c-11 -7 -32 -20 -46 -29 -14 -10 -29 -15 -33 -11 -3 3 -6 -2
-6 -12 0 -13 3 -16 10 -9 8 8 27 8 60 1 43 -8 52 -7 81 14 l32 22 -23 19 c-25
21 -46 22 -75 5z"/>
<path d="M205 430 c-8 -13 37 -30 80 -30 43 0 54 17 20 30 -34 13 -92 13 -100
0z"/>
<path d="M2986 272 c-11 -17 101 -82 114 -66 7 8 9 14 5 14 -5 0 -1 8 8 18 13
14 14 21 5 30 -13 13 -124 17 -132 4z"/>
<path d="M3173 103 c-4 -10 -19 -33 -35 -51 -44 -52 -43 -52 163 -52 l190 0
-27 36 c-33 43 -59 54 -123 54 -27 0 -68 7 -91 15 -55 19 -69 19 -77 -2z"/>
</g>
</svg>
